<svg width="32" height="32" viewBox="0 0 32 32" fill="none" xmlns="http://www.w3.org/2000/svg">
<path d="M15.7063 4.3583L16.2171 4.43198L15.8426 6.96072L18.4357 7.3334L18.8101 4.80467L19.3209 4.87809L18.9465 7.40682L21.5395 7.77978L21.9143 5.25104L22.4248 5.32446L22.0503 7.85319L24.8742 8.25913L25.6088 3.29931L13.2426 1.52129L12.5082 6.48111L15.3318 6.88705L15.7063 4.3583Z" fill="#AFB6C4"/>
<path d="M23.1199 2.42761L23.3256 1.0409L16.0855 0L15.88 1.38644L23.1199 2.42761Z" fill="#AFB6C4"/>
<path d="M14.0586 15.4796L14.5694 15.553L14.195 18.082L16.7881 18.455L17.1628 15.926L17.6733 15.9997L17.2988 18.5284L19.8919 18.9011L20.2666 16.3724L20.7774 16.4458L20.4027 18.9748L23.2265 19.3807L23.9754 14.323L11.6092 12.5447L10.8601 17.6026L13.6839 18.0086L14.0586 15.4796Z" fill="#AFB6C4"/>
<path d="M13.2355 21.0406L13.7463 21.114L13.3716 23.643L15.9649 24.016L16.3393 21.487L16.8501 21.5604L16.4756 24.0894L19.0687 24.4621L19.4432 21.9331L19.9539 22.0068L19.5795 24.5358L22.4031 24.9417L23.1522 19.884L10.786 18.106L10.0369 23.1637L12.8607 23.5696L13.2355 21.0406Z" fill="#AFB6C4"/>
<path d="M14.8825 9.91862L15.3932 9.9923L15.0185 12.521L17.6118 12.8937L17.9863 10.365L18.497 10.4384L18.1226 12.9674L20.7157 13.3404L21.0901 10.8114L21.6009 10.8848L21.2264 13.4135L24.05 13.8197L24.7992 8.76176L12.433 6.98376L11.6838 12.0415L14.5074 12.4474L14.8825 9.91862Z" fill="#AFB6C4"/>
<path d="M12.3799 26.6602L12.8907 26.7336L12.5683 28.909H15.2167L15.4837 27.1062L15.9945 27.1799L15.7386 28.909H18.3867L18.5878 27.5526L19.0983 27.6263L18.9085 28.909H21.8155L22.3284 25.4445L9.96224 23.6665L9.18584 28.909H12.0465L12.3799 26.6602Z" fill="#AFB6C4"/>
<path d="M2 29.4175H30V32H2V29.4175Z" fill="#AFB6C4"/>
</svg>
