<svg width="32" height="32" viewBox="0 0 32 32" fill="none" xmlns="http://www.w3.org/2000/svg">
<path d="M7.26832 5.48544H11.312L8.93347 2.45914L7.26832 5.48544Z" fill="#AFB6C4"/>
<path d="M12.385 5.208L15.2748 2.07543H9.91543L12.385 5.208Z" fill="#AFB6C4"/>
<path d="M12.0968 6.49757H7.64327L14.7232 13.522L12.0968 6.49757Z" fill="#AFB6C4"/>
<path d="M13.5083 5.48543H18.4985L16.0034 2.77787L13.5083 5.48543Z" fill="#AFB6C4"/>
<path d="M19.6218 5.208L22.0915 2.07543H16.7321L19.6218 5.208Z" fill="#AFB6C4"/>
<path d="M3.63547 20.9061L6.41361 23.8364C7.32435 24.798 7.70417 26.144 7.42566 27.4395L7.32434 27.9203H11.9448L11.9452 21.2856C11.9452 20.2075 11.4291 19.1753 10.5635 18.5325L5.39657 14.6713C5.18406 14.5145 4.9006 14.494 4.66797 14.6155C4.49606 14.7066 4.37462 14.8633 4.32873 15.0507C4.28319 15.2431 4.31849 15.4355 4.42475 15.5972L8.72652 21.6347L7.90649 22.2217L3.59486 16.1794C3.32164 15.7745 3.23057 15.2785 3.34705 14.8182C3.36717 14.7321 3.40283 14.6562 3.43319 14.5753L2.16801 7.94592C2.11224 7.65752 1.95057 7.40936 1.70734 7.24768C1.46447 7.08564 1.17606 7.01999 0.887657 7.0807C0.599252 7.13647 0.351087 7.29815 0.189407 7.54138C0.0273744 7.78424 -0.0333357 8.07265 0.0174972 8.36106L1.6925 17.1312C1.96537 18.5428 2.63327 19.8535 3.63547 20.9061Z" fill="#AFB6C4"/>
<path d="M28.3714 20.9061C29.3683 19.8535 30.0415 18.5427 30.3098 17.1208L31.2512 12.1614L31.6409 10.1221L31.7218 9.69184L31.7267 9.66642L31.9798 8.35073C32.0356 8.06232 31.9749 7.77392 31.8079 7.53105C31.6459 7.28818 31.3928 7.12615 31.1097 7.07037C30.8262 7.0146 30.5329 7.07532 30.29 7.23735C30.0471 7.40433 29.8851 7.65249 29.8293 7.9356L28.5641 14.565C28.5994 14.6459 28.6298 14.7218 28.6503 14.8079C28.7668 15.2735 28.6757 15.7645 28.4074 16.1642L24.1004 22.2217L23.2754 21.6347L27.587 15.5923C27.6884 15.4405 27.7236 15.2481 27.6781 15.0557C27.6326 14.8633 27.5111 14.7115 27.3389 14.6205C27.1062 14.4941 26.8228 14.5191 26.6103 14.6762L21.4433 18.5375C20.5781 19.1852 20.0616 20.2125 20.0616 21.2906V27.925L21.57 27.9253V28.9374H18.5843V31.7864H28.0731V28.9374H23.3767V27.9253H24.6874L24.5861 27.4445C24.3128 26.149 24.6874 24.803 25.5981 23.8414L28.3714 20.9061ZM20.988 30.8657H19.8594V29.8537H20.988V30.8657Z" fill="#AFB6C4"/>
<path d="M24.3635 6.49757H19.9051L19.6519 7.16546L18.7055 6.81104L18.822 6.49721L13.1795 6.49756L16.0032 14.0636L16.0689 13.8864H16.0639L16.251 13.3953L16.418 12.9449H16.4229V12.94L17.3796 13.2792L17.2885 13.5221L24.3635 6.49757ZM18.1845 8.22833L19.1461 8.54709L18.7716 9.5341L17.8252 9.17474L18.1845 8.22833ZM16.9444 11.5381L17.2988 10.5917L18.2604 10.9055L17.8908 11.8925L16.9444 11.5381Z" fill="#AFB6C4"/>
<path d="M3.93911 31.7812H13.4234V28.9321H3.93911V31.7812ZM11.019 29.853H12.1476V30.8651H11.019V29.853Z" fill="#AFB6C4"/>
<path d="M23.0731 2.45987L20.6945 5.48616H24.7382L23.0731 2.45987Z" fill="#AFB6C4"/>
<path d="M26.9653 0H28.0282V1.01205H26.9653V0Z" fill="#AFB6C4"/>
<path d="M3.93911 3.13762V2.42914H4.64759V1.41709H3.93911V0.708616H2.92706V1.41709H2.21858V2.42914H2.92706V3.13762H3.93911Z" fill="#AFB6C4"/>
</svg>
