<svg width="32" height="32" viewBox="0 0 32 32" fill="none" xmlns="http://www.w3.org/2000/svg">
<path d="M19.1935 31.9677C19.8358 29.6121 20.4333 27.4146 21.0459 25.2168C18.9992 24.3629 16.9676 23.5566 14.9805 22.6716C13.6509 22.0708 12.3511 21.4069 11.0965 20.6796C10.6932 20.4425 10.3644 19.9208 10.1403 19.4622C9.76688 18.6402 9.49795 17.7548 9.21392 16.9959C8.64624 17.1065 8.10836 17.1699 7.6006 17.3121C7.42141 17.3596 7.16723 17.5492 7.13742 17.7073C6.95823 18.6717 6.70405 19.6677 6.73416 20.6321C6.77904 21.8812 7.12266 23.0984 7.86957 24.2683C8.55681 23.2407 9.19917 22.2919 9.85658 21.3434C9.91621 21.375 9.99089 21.4225 10.0508 21.454C9.49819 22.6396 8.93053 23.8096 8.33272 25.0902C11.1711 27.7148 14.4728 29.5962 17.7894 31.9202H2.43174C2.92474 31.0508 3.32799 30.276 3.80622 29.5487C4.10497 29.09 4.09022 28.7739 3.76135 28.3156C1.0723 24.3948 1.49062 19.4149 4.82205 16.237C5.82307 15.2885 7.01807 14.5768 8.16851 13.7074C7.61588 11.6679 7.61588 9.50198 7.8547 7.30443C8.30282 3.1621 12.8295 -0.0313433 15.7278 0.000232128C18.3422 0.0317847 20.9565 0.000232126 23.5709 0.0792726C25.3335 0.12676 26.006 0.822192 26.0359 2.43486C26.0359 2.62449 26.0657 2.846 25.9762 2.97252C25.4236 3.71544 25.8269 4.39529 26.0211 5.12259C26.3051 6.18195 26.559 7.25699 26.8279 8.33202C26.8728 8.53758 26.8876 8.74316 26.9324 8.96434C25.9763 9.6126 24.4973 9.66009 24.4973 11.3358C21.5243 12.1106 18.3723 11.6045 15.534 12.98C15.3398 13.075 15.1904 13.2487 14.8766 13.5177C15.1606 13.5177 15.2949 13.5652 15.3696 13.5177C16.3107 12.9169 17.3566 12.9169 18.4022 12.9329C20.2995 12.9488 22.1818 12.9488 24.0791 12.9329C24.4227 12.9329 24.6618 12.9488 24.8112 13.3915C25.1548 14.3559 25.9466 14.5299 26.6636 13.7711C27.0521 13.3599 27.2909 12.7907 27.6346 12.2533C28.0827 12.7276 28.5757 13.2018 29.0091 13.7236C29.6665 14.514 29.5469 15.1782 28.6805 15.7314C27.7394 16.3322 27.7394 16.3322 28.0532 17.4863C28.2176 18.1186 28.5311 18.7828 27.5752 19.178C28.3372 19.5576 28.2625 19.9684 27.8442 20.506C27.6948 20.6956 27.6798 21.0909 27.7246 21.3754C28.0234 23.0196 27.4108 23.826 25.8122 23.826C24.9606 23.826 24.1242 23.7945 23.2726 23.8419C21.8981 23.921 21.3455 24.6639 21.5397 26.1029C21.674 27.1148 21.8237 28.0633 22.3164 29.0117C22.6898 29.7231 22.5853 30.735 22.6449 31.6204C22.66 31.7469 22.376 32 22.2266 32C21.2702 31.9837 20.299 31.9677 19.1935 31.9677Z" fill="#AFB6C4"/>
</svg>
