<svg width="37" height="32" viewBox="0 0 37 32" fill="none" xmlns="http://www.w3.org/2000/svg">
<path d="M4.24928 32C3.90959 32 3.63449 31.7268 3.63449 31.3928V26.8884C3.63449 26.5529 3.91113 26.2812 4.24928 26.2812C4.58743 26.2812 4.86407 26.5544 4.86407 26.8884V31.3928C4.86561 31.7268 4.58897 32 4.24928 32Z" fill="#AFB6C4"/>
<path d="M29.4669 6.40972H8.68707C6.98988 6.40972 5.60799 7.77301 5.60799 9.4507V20.7765C6.04006 21.329 6.45645 21.8742 6.83934 22.4207V9.4507C6.83934 8.44422 7.66798 7.62584 8.68707 7.62584H29.4669C30.4844 7.62584 31.313 8.44422 31.313 9.4507V27.4059H8.92641C8.90171 27.8311 8.80186 28.2408 8.61426 28.622H31.9278C32.2675 28.622 32.5426 28.3488 32.5426 28.0148L32.5428 9.45064C32.5444 7.77444 31.1625 6.40972 29.4669 6.40972Z" fill="#AFB6C4"/>
<path d="M24.2189 7.62567H13.9337C13.594 7.62567 13.3189 7.35245 13.3189 7.01848C13.3189 6.68452 13.5956 6.4113 13.9337 6.4113H24.2189C24.5586 6.4113 24.8337 6.68452 24.8337 7.01848C24.8334 7.35245 24.5586 7.62567 24.2189 7.62567Z" fill="#AFB6C4"/>
<path d="M8.78128 14.808C7.59775 14.808 6.58617 14.4011 5.77137 13.604C5.77137 13.604 6.00813 13.1971 5.76828 12.7447C5.61156 12.4486 6.39697 12.5063 6.63835 12.7417C7.23024 13.3232 7.90963 13.5934 8.77813 13.5934C9.54991 13.5934 10.1724 13.3809 10.7195 12.927V7.04852C10.7195 6.71304 10.9962 6.44134 11.3343 6.44134C11.6725 6.44134 11.9491 6.71456 11.9491 7.04852V13.1941C11.9491 13.3565 11.8814 13.5143 11.7631 13.6282C10.9378 14.4209 9.9633 14.808 8.78128 14.808Z" fill="#AFB6C4"/>
<path d="M13.9279 14.8101C12.7997 14.8101 11.7297 14.394 10.9118 13.6321C10.7888 13.5182 10.7181 13.3574 10.7181 13.1904V7.04913C10.7181 6.71364 10.9947 6.44194 11.3329 6.44194C11.671 6.44194 11.9476 6.71516 11.9476 7.04913V12.9138C12.5179 13.3647 13.2496 13.6822 13.9721 13.594C14.6929 13.5863 15.3772 13.3464 15.886 12.9291L15.8863 7.04301C15.8863 6.70753 16.1629 6.43583 16.501 6.43583C16.8392 6.43583 17.1158 6.70905 17.1158 7.04301V13.1992C17.1158 13.3601 17.0497 13.5149 16.936 13.6288C16.1889 14.365 15.1129 14.7961 13.9861 14.8098C13.9709 14.8101 13.9492 14.8101 13.9279 14.8101Z" fill="#AFB6C4"/>
<path d="M19.0771 14.8125C17.9335 14.8125 16.8711 14.3919 16.0764 13.6284C15.9565 13.5146 15.8888 13.3567 15.8888 13.1928L15.8891 7.04246C15.8891 6.70697 16.1657 6.43528 16.5039 6.43528C16.842 6.43528 17.1187 6.7085 17.1187 7.04246V12.9209C17.6599 13.3581 18.3408 13.5965 19.0647 13.5965C19.8041 13.5934 20.4927 13.352 21.0308 12.9102V7.18228C21.0308 6.8468 21.3074 6.5751 21.6456 6.5751C21.9837 6.5751 22.2604 6.84832 22.2604 7.18228V13.1806C22.2604 13.3431 22.1927 13.4994 22.0759 13.6132C21.2861 14.3813 20.2207 14.8064 19.0771 14.8125Z" fill="#AFB6C4"/>
<path d="M24.2236 14.8098C23.0308 14.8037 22.0223 14.4014 21.2137 13.6134C21.0968 13.4996 21.0307 13.3433 21.0307 13.1809V7.01242C21.0307 6.67694 21.3074 6.40524 21.6455 6.40524C21.9837 6.40524 22.2603 6.67846 22.2603 7.01242V12.915C22.8046 13.3766 23.4317 13.5921 24.2094 13.5951C24.9843 13.5951 25.613 13.3781 26.1739 12.9134L26.1742 7.01698C26.1742 6.68149 26.4508 6.4098 26.789 6.4098C27.1271 6.4098 27.4038 6.68301 27.4038 7.01698V13.1839C27.4038 13.3493 27.3346 13.5072 27.2146 13.621C26.3863 14.4104 25.378 14.8098 24.2236 14.8098Z" fill="#AFB6C4"/>
<path d="M29.3779 14.8066C28.2096 14.8005 27.146 14.3798 26.3603 13.6178C26.2435 13.504 26.1758 13.3477 26.1758 13.1853V7.01683C26.1758 6.68135 26.4524 6.40965 26.7906 6.40965C27.1287 6.40965 27.4054 6.68287 27.4054 7.01683V12.9148C27.9389 13.3489 28.6244 13.5873 29.3607 13.5904C30.1109 13.5904 30.784 13.3581 31.3314 12.9117L31.3317 9.27268C31.3317 8.9372 31.6083 8.6655 31.9465 8.6655C32.2846 8.6655 32.5613 8.93872 32.5613 9.27268V13.1834C32.5613 13.3473 32.4936 13.5052 32.3737 13.619C31.5759 14.3843 30.5108 14.8066 29.3779 14.8066Z" fill="#AFB6C4"/>
<path d="M24.2466 2.9436C24.2574 2.68842 24.2651 2.43045 24.2389 2.17831C24.2312 2.10079 24.1112 1.9793 24.0374 1.97498C23.707 1.95211 23.3734 1.96583 23.0335 1.96583V3.16979C23.3686 3.16979 23.69 3.17436 24.0096 3.16826C24.1465 3.16369 24.2404 3.07881 24.2466 2.9436Z" fill="#AFB6C4"/>
<path d="M20.6034 1.9601C20.2191 1.9601 19.9917 2.1802 19.9886 2.56423C19.9839 3.06975 19.9839 3.57527 19.9886 4.08082C19.9917 4.44986 20.2253 4.67301 20.5972 4.67301C20.9737 4.67301 21.2058 4.45597 21.2135 4.08693C21.2197 3.83175 21.2151 3.5753 21.2151 3.31858V2.9437C21.2151 2.81916 21.2166 2.69462 21.2151 2.56882C21.2089 2.18478 20.9829 1.95857 20.6034 1.9601Z" fill="#AFB6C4"/>
<path d="M27.9266 0H10.226C9.88635 0 9.61124 0.273219 9.61124 0.607182V7.01682C9.61124 7.3523 9.88789 7.624 10.226 7.624H11.4327C11.7724 7.624 12.0475 7.35078 12.0475 7.01682C12.0475 7.01682 21.1033 6.68133 21.1033 7.01682C21.1033 7.3523 21.38 7.624 21.7181 7.624H27.9252C28.2649 7.624 28.54 7.35078 28.54 7.01682L28.5403 0.608744C28.5418 0.273258 28.2648 0 27.9266 0ZM22.445 1.38158C22.491 1.37853 22.5448 1.36938 22.5986 1.36938C23.0291 1.36938 23.4594 1.36786 23.89 1.36938C24.4265 1.37243 24.846 1.79001 24.8491 2.32271C24.8506 2.47901 24.8506 2.63557 24.8491 2.79188C24.8476 3.3429 24.4232 3.75893 23.8606 3.75893H23.0258V5.24371H22.4432C22.445 3.96831 22.445 2.68411 22.445 1.38158ZM15.2786 5.03586C14.4746 5.52614 13.4924 5.12685 13.3263 4.21898C13.3186 4.17653 13.3202 4.13383 13.3171 4.08072H13.8858C14.0165 4.60911 14.3578 4.80326 14.8696 4.61979C14.9726 4.58344 15.1018 4.47568 15.1218 4.37986C15.1556 4.21593 15.2003 4.01082 14.9865 3.89849C14.7083 3.75133 14.427 3.61027 14.1519 3.45676C13.9875 3.36425 13.829 3.26106 13.6753 3.15329C13.1388 2.77384 13.1851 1.93411 13.7921 1.58055C14.639 1.08723 15.6859 1.59123 15.7243 2.55372H15.1509C15.1432 2.50823 15.137 2.46121 15.1262 2.41546C15.0616 2.13767 14.865 1.97221 14.576 1.96306C14.4762 1.95849 14.3732 1.96459 14.2749 1.98416C14.1182 2.0144 13.9568 2.05862 13.9136 2.2406C13.849 2.51713 13.8966 2.64471 14.1303 2.77662C14.3825 2.91946 14.6483 3.0379 14.9021 3.17743C15.0665 3.26842 15.2248 3.37339 15.3771 3.48268C15.9011 3.85604 15.8565 4.6836 15.2786 5.03586ZM18.7619 5.25139H18.1762V3.77267H16.9526V5.24983H16.3607V1.37849H16.9387V3.15631H18.17V1.37849H18.7604C18.7619 2.6734 18.7619 3.95804 18.7619 5.25139ZM20.6051 5.26054C19.9609 5.26359 19.3953 4.68512 19.3922 4.01722C19.3907 3.54957 19.3907 3.08042 19.3922 2.613C19.3953 1.9481 19.964 1.36812 20.6066 1.37118C21.2446 1.37423 21.8056 1.94812 21.8103 2.60382C21.8118 2.8407 21.8103 3.0791 21.8103 3.3157C21.8103 3.54647 21.8118 3.77725 21.8103 4.00805C21.8072 4.6775 21.2476 5.25748 20.6051 5.26054Z" fill="#AFB6C4"/>
<path d="M35.9566 32H2.19389C1.8542 32 1.5791 31.7268 1.5791 31.3928C1.5791 31.0588 1.85575 30.7856 2.19389 30.7856H35.9566C36.2963 30.7856 36.5714 31.0588 36.5714 31.3928C36.5717 31.7268 36.2966 32 35.9566 32Z" fill="#AFB6C4"/>
<path d="M4.66115 30.2726L3.43283 30.2225C2.67956 30.1346 2.04626 29.9325 1.49761 29.6001C0.367902 28.9123 -0.196489 27.6736 0.061891 26.4437C0.172549 25.9168 0.367869 25.3658 0.644518 24.8072C1.37308 23.3315 2.33242 22.079 3.41918 20.7096C3.86489 20.1433 4.67807 20.198 5.08238 20.7111C6.17071 22.0851 7.13137 23.3422 7.85394 24.8071C8.12904 25.3597 8.32436 25.911 8.43657 26.4436C8.69494 27.6748 8.13213 28.9122 7.00236 29.6C6.45654 29.931 5.82041 30.1361 5.06253 30.224L4.73983 30.2664C4.71332 30.2695 4.6874 30.2726 4.66115 30.2726Z" fill="#AFB6C4"/>
<path d="M6.14007 13.9063V21.4655C6.94558 22.5327 7.66506 23.5834 8.24151 24.7538C8.54594 25.3655 8.76263 25.976 8.88718 26.5664C8.98394 27.028 8.94251 27.4804 8.84112 27.9205H31.988L31.9877 13.4495L6.14007 13.9063ZM14.6484 24.3817H10.4551C10.1154 24.3817 9.84028 24.1084 9.84028 23.7745V21.1981H14.6487L14.6484 24.3817ZM14.6484 19.9804H9.84028V17.4314C9.84028 17.0959 10.1169 16.8242 10.4551 16.8242H14.6484V19.9804ZM20.6865 23.7727C20.6865 24.1081 20.4098 24.3798 20.0717 24.3798H15.8783V21.1947H20.6867L20.6865 23.7727ZM20.6865 19.9804H15.878V16.824H20.0714C20.4111 16.824 20.6862 17.0972 20.6862 17.4311L20.6865 19.9804ZM29.9485 27.3828C29.9485 27.6682 29.7133 27.899 29.4258 27.899H24.656C24.367 27.899 24.1333 27.6667 24.1333 27.3828V20.3382C24.1333 20.0528 24.3685 19.822 24.656 19.822H29.4258C29.7148 19.822 29.9485 20.0543 29.9485 20.3382V27.3828Z" fill="#AFB6C4"/>
<path d="M32.6534 27.3954H8.92484C8.90168 27.8206 8.80646 28.2303 8.6204 28.6115H32.6527C32.9924 28.6115 33.2675 28.3383 33.2675 28.0043C33.2677 27.6701 32.9931 27.3954 32.6534 27.3954Z" fill="#AFB6C4"/>
<path d="M25.1077 23.7167C25.1077 24.1378 24.4682 24.1378 24.4682 23.7167C24.4682 23.2958 25.1077 23.2958 25.1077 23.7167Z" fill="#AFB6C4"/>
</svg>
