<svg width="32" height="32" viewBox="0 0 32 32" fill="none" xmlns="http://www.w3.org/2000/svg">
<path d="M25.4974 23.6541V29.4837H29.2414V28.4353L32 30.2386L29.2414 32V31.1192C19.7831 31.1192 10.3252 31.1192 0.866884 31.0772L0.906317 2.9357H0L1.65509 0L3.34965 2.9357H2.44333V5.91334H3.82265V7.54904H2.44333L2.4039 10.3591H3.82263V11.9528H2.4039V14.8048H3.82263V16.3986H2.4039V19.2086H3.82263V20.8443H2.4039V23.6544H3.82263V25.2901H2.4039V29.4841H5.79318V20.1315H10.1282V29.4841H10.9164V5.36877H15.2514V29.4841H16.0397V13.2116H20.3747V29.4841H21.1629V23.6544L25.4974 23.6541ZM6.06847 23.2766H9.81246V20.4666H6.06847V23.2766ZM11.1917 16.3984H14.9357V5.66185H11.1917V16.3984ZM20.0981 13.5464H16.3149V20.1309H20.0981V13.5464ZM21.4379 25.3732H25.2211V23.9892H21.4379V25.3732Z" fill="#AFB6C4"/>
<path fill-rule="evenodd" clip-rule="evenodd" d="M11.7435 6.0393C11.7435 6.26296 11.4283 6.26296 11.4283 6.0393C11.4283 5.81563 11.7435 5.81563 11.7435 6.0393Z" fill="#AFB6C4"/>
<path fill-rule="evenodd" clip-rule="evenodd" d="M12.3346 6.0393C12.3346 6.26296 12.0194 6.26296 12.0194 6.0393C12.0194 5.81563 12.3346 5.81563 12.3346 6.0393Z" fill="#AFB6C4"/>
<path fill-rule="evenodd" clip-rule="evenodd" d="M12.9258 6.0393C12.9258 6.26296 12.6104 6.26296 12.6104 6.0393C12.6104 5.81563 12.9258 5.81563 12.9258 6.0393Z" fill="#AFB6C4"/>
<path fill-rule="evenodd" clip-rule="evenodd" d="M13.517 6.0393C13.517 6.26296 13.2017 6.26296 13.2017 6.0393C13.2017 5.81563 13.517 5.81563 13.517 6.0393Z" fill="#AFB6C4"/>
<path fill-rule="evenodd" clip-rule="evenodd" d="M14.1474 6.0393C14.1474 6.26296 13.8322 6.26296 13.8322 6.0393C13.8322 5.81563 14.1474 5.81563 14.1474 6.0393Z" fill="#AFB6C4"/>
<path fill-rule="evenodd" clip-rule="evenodd" d="M14.7391 6.0393C14.7391 6.26296 14.4237 6.26296 14.4237 6.0393C14.4237 5.81563 14.7391 5.81563 14.7391 6.0393Z" fill="#AFB6C4"/>
<path fill-rule="evenodd" clip-rule="evenodd" d="M11.7435 6.62615C11.7435 6.84981 11.4283 6.84981 11.4283 6.62615C11.4283 6.40248 11.7435 6.40248 11.7435 6.62615Z" fill="#AFB6C4"/>
<path fill-rule="evenodd" clip-rule="evenodd" d="M11.7435 7.17128C11.7435 7.39494 11.4283 7.39494 11.4283 7.17128C11.4283 6.94762 11.7435 6.94762 11.7435 7.17128Z" fill="#AFB6C4"/>
<path fill-rule="evenodd" clip-rule="evenodd" d="M11.7435 7.75872C11.7435 7.98238 11.4283 7.98238 11.4283 7.75872C11.4283 7.53506 11.7435 7.53506 11.7435 7.75872Z" fill="#AFB6C4"/>
<path fill-rule="evenodd" clip-rule="evenodd" d="M11.7435 8.30385C11.7435 8.52751 11.4283 8.52751 11.4283 8.30385C11.4283 8.08019 11.7435 8.08019 11.7435 8.30385Z" fill="#AFB6C4"/>
<path fill-rule="evenodd" clip-rule="evenodd" d="M11.7435 8.8913C11.7435 9.11496 11.4283 9.11496 11.4283 8.8913C11.4283 8.66764 11.7435 8.66764 11.7435 8.8913Z" fill="#AFB6C4"/>
<path fill-rule="evenodd" clip-rule="evenodd" d="M11.7435 9.43643C11.7435 9.66009 11.4283 9.66009 11.4283 9.43643C11.4283 9.21277 11.7435 9.21277 11.7435 9.43643Z" fill="#AFB6C4"/>
<path fill-rule="evenodd" clip-rule="evenodd" d="M11.7435 10.0233C11.7435 10.2469 11.4283 10.2469 11.4283 10.0233C11.4283 9.79962 11.7435 9.79962 11.7435 10.0233Z" fill="#AFB6C4"/>
<path fill-rule="evenodd" clip-rule="evenodd" d="M11.7435 10.5684C11.7435 10.7921 11.4283 10.7921 11.4283 10.5684C11.4283 10.3447 11.7435 10.3447 11.7435 10.5684Z" fill="#AFB6C4"/>
<path fill-rule="evenodd" clip-rule="evenodd" d="M11.7435 11.1559C11.7435 11.3795 11.4283 11.3795 11.4283 11.1559C11.4283 10.9322 11.7435 10.9322 11.7435 11.1559Z" fill="#AFB6C4"/>
<path fill-rule="evenodd" clip-rule="evenodd" d="M11.7435 11.701C11.7435 11.9246 11.4283 11.9246 11.4283 11.701C11.4283 11.4773 11.7435 11.4773 11.7435 11.701Z" fill="#AFB6C4"/>
<path fill-rule="evenodd" clip-rule="evenodd" d="M11.7435 12.2884C11.7435 12.5121 11.4283 12.5121 11.4283 12.2884C11.4283 12.0647 11.7435 12.0647 11.7435 12.2884Z" fill="#AFB6C4"/>
<path fill-rule="evenodd" clip-rule="evenodd" d="M11.7435 12.8336C11.7435 13.0572 11.4283 13.0572 11.4283 12.8336C11.4283 12.6099 11.7435 12.6099 11.7435 12.8336Z" fill="#AFB6C4"/>
<path fill-rule="evenodd" clip-rule="evenodd" d="M11.7435 13.4204C11.7435 13.6441 11.4283 13.6441 11.4283 13.4204C11.4283 13.1968 11.7435 13.1968 11.7435 13.4204Z" fill="#AFB6C4"/>
<path fill-rule="evenodd" clip-rule="evenodd" d="M11.7435 13.9655C11.7435 14.1892 11.4283 14.1892 11.4283 13.9655C11.4283 13.7419 11.7435 13.7419 11.7435 13.9655Z" fill="#AFB6C4"/>
<path fill-rule="evenodd" clip-rule="evenodd" d="M11.7435 14.553C11.7435 14.7766 11.4283 14.7766 11.4283 14.553C11.4283 14.3293 11.7435 14.3293 11.7435 14.553Z" fill="#AFB6C4"/>
<path fill-rule="evenodd" clip-rule="evenodd" d="M11.7435 15.0981C11.7435 15.3218 11.4283 15.3218 11.4283 15.0981C11.4283 14.8745 11.7435 14.8745 11.7435 15.0981Z" fill="#AFB6C4"/>
<path fill-rule="evenodd" clip-rule="evenodd" d="M11.7435 15.6855C11.7435 15.9092 11.4283 15.9092 11.4283 15.6855C11.4283 15.4619 11.7435 15.4619 11.7435 15.6855Z" fill="#AFB6C4"/>
<path fill-rule="evenodd" clip-rule="evenodd" d="M12.3346 6.62615C12.3346 6.84981 12.0194 6.84981 12.0194 6.62615C12.0194 6.40248 12.3346 6.40248 12.3346 6.62615Z" fill="#AFB6C4"/>
<path fill-rule="evenodd" clip-rule="evenodd" d="M12.3346 7.17128C12.3346 7.39494 12.0194 7.39494 12.0194 7.17128C12.0194 6.94762 12.3346 6.94762 12.3346 7.17128Z" fill="#AFB6C4"/>
<path fill-rule="evenodd" clip-rule="evenodd" d="M12.3346 7.75872C12.3346 7.98238 12.0194 7.98238 12.0194 7.75872C12.0194 7.53506 12.3346 7.53506 12.3346 7.75872Z" fill="#AFB6C4"/>
<path fill-rule="evenodd" clip-rule="evenodd" d="M12.3346 8.30385C12.3346 8.52751 12.0194 8.52751 12.0194 8.30385C12.0194 8.08019 12.3346 8.08019 12.3346 8.30385Z" fill="#AFB6C4"/>
<path fill-rule="evenodd" clip-rule="evenodd" d="M12.3346 8.8913C12.3346 9.11496 12.0194 9.11496 12.0194 8.8913C12.0194 8.66764 12.3346 8.66764 12.3346 8.8913Z" fill="#AFB6C4"/>
<path fill-rule="evenodd" clip-rule="evenodd" d="M12.3346 9.43643C12.3346 9.66009 12.0194 9.66009 12.0194 9.43643C12.0194 9.21277 12.3346 9.21277 12.3346 9.43643Z" fill="#AFB6C4"/>
<path fill-rule="evenodd" clip-rule="evenodd" d="M12.3346 10.0233C12.3346 10.2469 12.0194 10.2469 12.0194 10.0233C12.0194 9.79962 12.3346 9.79962 12.3346 10.0233Z" fill="#AFB6C4"/>
<path fill-rule="evenodd" clip-rule="evenodd" d="M12.3346 10.5684C12.3346 10.7921 12.0194 10.7921 12.0194 10.5684C12.0194 10.3447 12.3346 10.3447 12.3346 10.5684Z" fill="#AFB6C4"/>
<path fill-rule="evenodd" clip-rule="evenodd" d="M12.3346 11.1559C12.3346 11.3795 12.0194 11.3795 12.0194 11.1559C12.0194 10.9322 12.3346 10.9322 12.3346 11.1559Z" fill="#AFB6C4"/>
<path fill-rule="evenodd" clip-rule="evenodd" d="M12.3346 11.701C12.3346 11.9246 12.0194 11.9246 12.0194 11.701C12.0194 11.4773 12.3346 11.4773 12.3346 11.701Z" fill="#AFB6C4"/>
<path fill-rule="evenodd" clip-rule="evenodd" d="M12.3346 12.2884C12.3346 12.5121 12.0194 12.5121 12.0194 12.2884C12.0194 12.0647 12.3346 12.0647 12.3346 12.2884Z" fill="#AFB6C4"/>
<path fill-rule="evenodd" clip-rule="evenodd" d="M12.3346 12.8336C12.3346 13.0572 12.0194 13.0572 12.0194 12.8336C12.0194 12.6099 12.3346 12.6099 12.3346 12.8336Z" fill="#AFB6C4"/>
<path fill-rule="evenodd" clip-rule="evenodd" d="M12.3346 13.4204C12.3346 13.6441 12.0194 13.6441 12.0194 13.4204C12.0194 13.1968 12.3346 13.1968 12.3346 13.4204Z" fill="#AFB6C4"/>
<path fill-rule="evenodd" clip-rule="evenodd" d="M12.3346 13.9655C12.3346 14.1892 12.0194 14.1892 12.0194 13.9655C12.0194 13.7419 12.3346 13.7419 12.3346 13.9655Z" fill="#AFB6C4"/>
<path fill-rule="evenodd" clip-rule="evenodd" d="M12.3346 14.553C12.3346 14.7766 12.0194 14.7766 12.0194 14.553C12.0194 14.3293 12.3346 14.3293 12.3346 14.553Z" fill="#AFB6C4"/>
<path fill-rule="evenodd" clip-rule="evenodd" d="M12.3346 15.0981C12.3346 15.3218 12.0194 15.3218 12.0194 15.0981C12.0194 14.8745 12.3346 14.8745 12.3346 15.0981Z" fill="#AFB6C4"/>
<path fill-rule="evenodd" clip-rule="evenodd" d="M12.3346 15.6855C12.3346 15.9092 12.0194 15.9092 12.0194 15.6855C12.0194 15.4619 12.3346 15.4619 12.3346 15.6855Z" fill="#AFB6C4"/>
<path fill-rule="evenodd" clip-rule="evenodd" d="M12.9258 6.62615C12.9258 6.84981 12.6104 6.84981 12.6104 6.62615C12.6104 6.40248 12.9258 6.40248 12.9258 6.62615Z" fill="#AFB6C4"/>
<path fill-rule="evenodd" clip-rule="evenodd" d="M12.9258 7.17128C12.9258 7.39494 12.6104 7.39494 12.6104 7.17128C12.6104 6.94762 12.9258 6.94762 12.9258 7.17128Z" fill="#AFB6C4"/>
<path fill-rule="evenodd" clip-rule="evenodd" d="M12.9258 7.75872C12.9258 7.98238 12.6104 7.98238 12.6104 7.75872C12.6104 7.53506 12.9258 7.53506 12.9258 7.75872Z" fill="#AFB6C4"/>
<path fill-rule="evenodd" clip-rule="evenodd" d="M12.9258 8.30385C12.9258 8.52751 12.6104 8.52751 12.6104 8.30385C12.6104 8.08019 12.9258 8.08019 12.9258 8.30385Z" fill="#AFB6C4"/>
<path fill-rule="evenodd" clip-rule="evenodd" d="M12.9258 8.8913C12.9258 9.11496 12.6104 9.11496 12.6104 8.8913C12.6104 8.66764 12.9258 8.66764 12.9258 8.8913Z" fill="#AFB6C4"/>
<path fill-rule="evenodd" clip-rule="evenodd" d="M12.9258 9.43643C12.9258 9.66009 12.6104 9.66009 12.6104 9.43643C12.6104 9.21277 12.9258 9.21277 12.9258 9.43643Z" fill="#AFB6C4"/>
<path fill-rule="evenodd" clip-rule="evenodd" d="M12.9258 10.0233C12.9258 10.2469 12.6104 10.2469 12.6104 10.0233C12.6104 9.79962 12.9258 9.79962 12.9258 10.0233Z" fill="#AFB6C4"/>
<path fill-rule="evenodd" clip-rule="evenodd" d="M12.9258 10.5684C12.9258 10.7921 12.6104 10.7921 12.6104 10.5684C12.6104 10.3447 12.9258 10.3447 12.9258 10.5684Z" fill="#AFB6C4"/>
<path fill-rule="evenodd" clip-rule="evenodd" d="M12.9258 11.1559C12.9258 11.3795 12.6104 11.3795 12.6104 11.1559C12.6104 10.9322 12.9258 10.9322 12.9258 11.1559Z" fill="#AFB6C4"/>
<path fill-rule="evenodd" clip-rule="evenodd" d="M12.9258 11.701C12.9258 11.9246 12.6104 11.9246 12.6104 11.701C12.6104 11.4773 12.9258 11.4773 12.9258 11.701Z" fill="#AFB6C4"/>
<path fill-rule="evenodd" clip-rule="evenodd" d="M12.9258 12.2884C12.9258 12.5121 12.6104 12.5121 12.6104 12.2884C12.6104 12.0647 12.9258 12.0647 12.9258 12.2884Z" fill="#AFB6C4"/>
<path fill-rule="evenodd" clip-rule="evenodd" d="M12.9258 12.8336C12.9258 13.0572 12.6104 13.0572 12.6104 12.8336C12.6104 12.6099 12.9258 12.6099 12.9258 12.8336Z" fill="#AFB6C4"/>
<path fill-rule="evenodd" clip-rule="evenodd" d="M12.9258 13.4204C12.9258 13.6441 12.6104 13.6441 12.6104 13.4204C12.6104 13.1968 12.9258 13.1968 12.9258 13.4204Z" fill="#AFB6C4"/>
<path fill-rule="evenodd" clip-rule="evenodd" d="M12.9258 13.9655C12.9258 14.1892 12.6104 14.1892 12.6104 13.9655C12.6104 13.7419 12.9258 13.7419 12.9258 13.9655Z" fill="#AFB6C4"/>
<path fill-rule="evenodd" clip-rule="evenodd" d="M12.9258 14.553C12.9258 14.7766 12.6104 14.7766 12.6104 14.553C12.6104 14.3293 12.9258 14.3293 12.9258 14.553Z" fill="#AFB6C4"/>
<path fill-rule="evenodd" clip-rule="evenodd" d="M12.9258 15.0981C12.9258 15.3218 12.6104 15.3218 12.6104 15.0981C12.6104 14.8745 12.9258 14.8745 12.9258 15.0981Z" fill="#AFB6C4"/>
<path fill-rule="evenodd" clip-rule="evenodd" d="M12.9258 15.6855C12.9258 15.9092 12.6104 15.9092 12.6104 15.6855C12.6104 15.4619 12.9258 15.4619 12.9258 15.6855Z" fill="#AFB6C4"/>
<path fill-rule="evenodd" clip-rule="evenodd" d="M13.517 6.62615C13.517 6.84981 13.2017 6.84981 13.2017 6.62615C13.2017 6.40248 13.517 6.40248 13.517 6.62615Z" fill="#AFB6C4"/>
<path fill-rule="evenodd" clip-rule="evenodd" d="M13.517 7.17128C13.517 7.39494 13.2017 7.39494 13.2017 7.17128C13.2017 6.94762 13.517 6.94762 13.517 7.17128Z" fill="#AFB6C4"/>
<path fill-rule="evenodd" clip-rule="evenodd" d="M13.517 7.75872C13.517 7.98238 13.2017 7.98238 13.2017 7.75872C13.2017 7.53506 13.517 7.53506 13.517 7.75872Z" fill="#AFB6C4"/>
<path fill-rule="evenodd" clip-rule="evenodd" d="M13.517 8.30385C13.517 8.52751 13.2017 8.52751 13.2017 8.30385C13.2017 8.08019 13.517 8.08019 13.517 8.30385Z" fill="#AFB6C4"/>
<path fill-rule="evenodd" clip-rule="evenodd" d="M13.517 8.8913C13.517 9.11496 13.2017 9.11496 13.2017 8.8913C13.2017 8.66764 13.517 8.66764 13.517 8.8913Z" fill="#AFB6C4"/>
<path fill-rule="evenodd" clip-rule="evenodd" d="M13.517 9.43643C13.517 9.66009 13.2017 9.66009 13.2017 9.43643C13.2017 9.21277 13.517 9.21277 13.517 9.43643Z" fill="#AFB6C4"/>
<path fill-rule="evenodd" clip-rule="evenodd" d="M13.517 10.0233C13.517 10.2469 13.2017 10.2469 13.2017 10.0233C13.2017 9.79962 13.517 9.79962 13.517 10.0233Z" fill="#AFB6C4"/>
<path fill-rule="evenodd" clip-rule="evenodd" d="M13.517 10.5684C13.517 10.7921 13.2017 10.7921 13.2017 10.5684C13.2017 10.3447 13.517 10.3447 13.517 10.5684Z" fill="#AFB6C4"/>
<path fill-rule="evenodd" clip-rule="evenodd" d="M13.517 11.1559C13.517 11.3795 13.2017 11.3795 13.2017 11.1559C13.2017 10.9322 13.517 10.9322 13.517 11.1559Z" fill="#AFB6C4"/>
<path fill-rule="evenodd" clip-rule="evenodd" d="M13.517 11.701C13.517 11.9246 13.2017 11.9246 13.2017 11.701C13.2017 11.4773 13.517 11.4773 13.517 11.701Z" fill="#AFB6C4"/>
<path fill-rule="evenodd" clip-rule="evenodd" d="M13.517 12.2884C13.517 12.5121 13.2017 12.5121 13.2017 12.2884C13.2017 12.0647 13.517 12.0647 13.517 12.2884Z" fill="#AFB6C4"/>
<path fill-rule="evenodd" clip-rule="evenodd" d="M13.517 12.8336C13.517 13.0572 13.2017 13.0572 13.2017 12.8336C13.2017 12.6099 13.517 12.6099 13.517 12.8336Z" fill="#AFB6C4"/>
<path fill-rule="evenodd" clip-rule="evenodd" d="M13.517 13.4204C13.517 13.6441 13.2017 13.6441 13.2017 13.4204C13.2017 13.1968 13.517 13.1968 13.517 13.4204Z" fill="#AFB6C4"/>
<path fill-rule="evenodd" clip-rule="evenodd" d="M13.517 13.9655C13.517 14.1892 13.2017 14.1892 13.2017 13.9655C13.2017 13.7419 13.517 13.7419 13.517 13.9655Z" fill="#AFB6C4"/>
<path fill-rule="evenodd" clip-rule="evenodd" d="M13.517 14.553C13.517 14.7766 13.2017 14.7766 13.2017 14.553C13.2017 14.3293 13.517 14.3293 13.517 14.553Z" fill="#AFB6C4"/>
<path fill-rule="evenodd" clip-rule="evenodd" d="M13.517 15.0981C13.517 15.3218 13.2017 15.3218 13.2017 15.0981C13.2017 14.8745 13.517 14.8745 13.517 15.0981Z" fill="#AFB6C4"/>
<path fill-rule="evenodd" clip-rule="evenodd" d="M13.517 15.6855C13.517 15.9092 13.2017 15.9092 13.2017 15.6855C13.2017 15.4619 13.517 15.4619 13.517 15.6855Z" fill="#AFB6C4"/>
<path fill-rule="evenodd" clip-rule="evenodd" d="M14.1474 6.62615C14.1474 6.84981 13.8322 6.84981 13.8322 6.62615C13.8322 6.40248 14.1474 6.40248 14.1474 6.62615Z" fill="#AFB6C4"/>
<path fill-rule="evenodd" clip-rule="evenodd" d="M14.1474 7.17128C14.1474 7.39494 13.8322 7.39494 13.8322 7.17128C13.8322 6.94762 14.1474 6.94762 14.1474 7.17128Z" fill="#AFB6C4"/>
<path fill-rule="evenodd" clip-rule="evenodd" d="M14.1474 7.75872C14.1474 7.98238 13.8322 7.98238 13.8322 7.75872C13.8322 7.53506 14.1474 7.53506 14.1474 7.75872Z" fill="#AFB6C4"/>
<path fill-rule="evenodd" clip-rule="evenodd" d="M14.1474 8.30385C14.1474 8.52751 13.8322 8.52751 13.8322 8.30385C13.8322 8.08019 14.1474 8.08019 14.1474 8.30385Z" fill="#AFB6C4"/>
<path fill-rule="evenodd" clip-rule="evenodd" d="M14.1474 8.8913C14.1474 9.11496 13.8322 9.11496 13.8322 8.8913C13.8322 8.66764 14.1474 8.66764 14.1474 8.8913Z" fill="#AFB6C4"/>
<path fill-rule="evenodd" clip-rule="evenodd" d="M14.1474 9.43643C14.1474 9.66009 13.8322 9.66009 13.8322 9.43643C13.8322 9.21277 14.1474 9.21277 14.1474 9.43643Z" fill="#AFB6C4"/>
<path fill-rule="evenodd" clip-rule="evenodd" d="M14.1474 10.0233C14.1474 10.2469 13.8322 10.2469 13.8322 10.0233C13.8322 9.79962 14.1474 9.79962 14.1474 10.0233Z" fill="#AFB6C4"/>
<path fill-rule="evenodd" clip-rule="evenodd" d="M14.1474 10.5684C14.1474 10.7921 13.8322 10.7921 13.8322 10.5684C13.8322 10.3447 14.1474 10.3447 14.1474 10.5684Z" fill="#AFB6C4"/>
<path fill-rule="evenodd" clip-rule="evenodd" d="M14.1474 11.1559C14.1474 11.3795 13.8322 11.3795 13.8322 11.1559C13.8322 10.9322 14.1474 10.9322 14.1474 11.1559Z" fill="#AFB6C4"/>
<path fill-rule="evenodd" clip-rule="evenodd" d="M14.1474 11.701C14.1474 11.9246 13.8322 11.9246 13.8322 11.701C13.8322 11.4773 14.1474 11.4773 14.1474 11.701Z" fill="#AFB6C4"/>
<path fill-rule="evenodd" clip-rule="evenodd" d="M14.1474 12.2884C14.1474 12.5121 13.8322 12.5121 13.8322 12.2884C13.8322 12.0647 14.1474 12.0647 14.1474 12.2884Z" fill="#AFB6C4"/>
<path fill-rule="evenodd" clip-rule="evenodd" d="M14.1474 12.8336C14.1474 13.0572 13.8322 13.0572 13.8322 12.8336C13.8322 12.6099 14.1474 12.6099 14.1474 12.8336Z" fill="#AFB6C4"/>
<path fill-rule="evenodd" clip-rule="evenodd" d="M14.1474 13.4204C14.1474 13.6441 13.8322 13.6441 13.8322 13.4204C13.8322 13.1968 14.1474 13.1968 14.1474 13.4204Z" fill="#AFB6C4"/>
<path fill-rule="evenodd" clip-rule="evenodd" d="M14.1474 13.9655C14.1474 14.1892 13.8322 14.1892 13.8322 13.9655C13.8322 13.7419 14.1474 13.7419 14.1474 13.9655Z" fill="#AFB6C4"/>
<path fill-rule="evenodd" clip-rule="evenodd" d="M14.1474 14.553C14.1474 14.7766 13.8322 14.7766 13.8322 14.553C13.8322 14.3293 14.1474 14.3293 14.1474 14.553Z" fill="#AFB6C4"/>
<path fill-rule="evenodd" clip-rule="evenodd" d="M14.1474 15.0981C14.1474 15.3218 13.8322 15.3218 13.8322 15.0981C13.8322 14.8745 14.1474 14.8745 14.1474 15.0981Z" fill="#AFB6C4"/>
<path fill-rule="evenodd" clip-rule="evenodd" d="M14.1474 15.6855C14.1474 15.9092 13.8322 15.9092 13.8322 15.6855C13.8322 15.4619 14.1474 15.4619 14.1474 15.6855Z" fill="#AFB6C4"/>
<path fill-rule="evenodd" clip-rule="evenodd" d="M14.7391 6.62615C14.7391 6.84981 14.4237 6.84981 14.4237 6.62615C14.4237 6.40248 14.7391 6.40248 14.7391 6.62615Z" fill="#AFB6C4"/>
<path fill-rule="evenodd" clip-rule="evenodd" d="M14.7391 7.17128C14.7391 7.39494 14.4237 7.39494 14.4237 7.17128C14.4237 6.94762 14.7391 6.94762 14.7391 7.17128Z" fill="#AFB6C4"/>
<path fill-rule="evenodd" clip-rule="evenodd" d="M14.7391 7.75872C14.7391 7.98238 14.4237 7.98238 14.4237 7.75872C14.4237 7.53506 14.7391 7.53506 14.7391 7.75872Z" fill="#AFB6C4"/>
<path fill-rule="evenodd" clip-rule="evenodd" d="M14.7391 8.30385C14.7391 8.52751 14.4237 8.52751 14.4237 8.30385C14.4237 8.08019 14.7391 8.08019 14.7391 8.30385Z" fill="#AFB6C4"/>
<path fill-rule="evenodd" clip-rule="evenodd" d="M14.7391 8.8913C14.7391 9.11496 14.4237 9.11496 14.4237 8.8913C14.4237 8.66764 14.7391 8.66764 14.7391 8.8913Z" fill="#AFB6C4"/>
<path fill-rule="evenodd" clip-rule="evenodd" d="M14.7391 9.43643C14.7391 9.66009 14.4237 9.66009 14.4237 9.43643C14.4237 9.21277 14.7391 9.21277 14.7391 9.43643Z" fill="#AFB6C4"/>
<path fill-rule="evenodd" clip-rule="evenodd" d="M14.7391 10.0233C14.7391 10.2469 14.4237 10.2469 14.4237 10.0233C14.4237 9.79962 14.7391 9.79962 14.7391 10.0233Z" fill="#AFB6C4"/>
<path fill-rule="evenodd" clip-rule="evenodd" d="M14.7391 10.5684C14.7391 10.7921 14.4237 10.7921 14.4237 10.5684C14.4237 10.3447 14.7391 10.3447 14.7391 10.5684Z" fill="#AFB6C4"/>
<path fill-rule="evenodd" clip-rule="evenodd" d="M14.7391 11.1559C14.7391 11.3795 14.4237 11.3795 14.4237 11.1559C14.4237 10.9322 14.7391 10.9322 14.7391 11.1559Z" fill="#AFB6C4"/>
<path fill-rule="evenodd" clip-rule="evenodd" d="M14.7391 11.701C14.7391 11.9246 14.4237 11.9246 14.4237 11.701C14.4237 11.4773 14.7391 11.4773 14.7391 11.701Z" fill="#AFB6C4"/>
<path fill-rule="evenodd" clip-rule="evenodd" d="M14.7391 12.2884C14.7391 12.5121 14.4237 12.5121 14.4237 12.2884C14.4237 12.0647 14.7391 12.0647 14.7391 12.2884Z" fill="#AFB6C4"/>
<path fill-rule="evenodd" clip-rule="evenodd" d="M14.7391 12.8336C14.7391 13.0572 14.4237 13.0572 14.4237 12.8336C14.4237 12.6099 14.7391 12.6099 14.7391 12.8336Z" fill="#AFB6C4"/>
<path fill-rule="evenodd" clip-rule="evenodd" d="M14.7391 13.4204C14.7391 13.6441 14.4237 13.6441 14.4237 13.4204C14.4237 13.1968 14.7391 13.1968 14.7391 13.4204Z" fill="#AFB6C4"/>
<path fill-rule="evenodd" clip-rule="evenodd" d="M14.7391 13.9655C14.7391 14.1892 14.4237 14.1892 14.4237 13.9655C14.4237 13.7419 14.7391 13.7419 14.7391 13.9655Z" fill="#AFB6C4"/>
<path fill-rule="evenodd" clip-rule="evenodd" d="M14.7391 14.553C14.7391 14.7766 14.4237 14.7766 14.4237 14.553C14.4237 14.3293 14.7391 14.3293 14.7391 14.553Z" fill="#AFB6C4"/>
<path fill-rule="evenodd" clip-rule="evenodd" d="M14.7391 15.0981C14.7391 15.3218 14.4237 15.3218 14.4237 15.0981C14.4237 14.8745 14.7391 14.8745 14.7391 15.0981Z" fill="#AFB6C4"/>
<path fill-rule="evenodd" clip-rule="evenodd" d="M14.7391 15.6855C14.7391 15.9092 14.4237 15.9092 14.4237 15.6855C14.4237 15.4619 14.7391 15.4619 14.7391 15.6855Z" fill="#AFB6C4"/>
<path fill-rule="evenodd" clip-rule="evenodd" d="M11.7435 16.1884C11.7435 16.412 11.4283 16.412 11.4283 16.1884C11.4283 15.9645 11.7435 15.9645 11.7435 16.1884Z" fill="#AFB6C4"/>
<path fill-rule="evenodd" clip-rule="evenodd" d="M12.3346 16.1884C12.3346 16.412 12.0194 16.412 12.0194 16.1884C12.0194 15.9645 12.3346 15.9645 12.3346 16.1884Z" fill="#AFB6C4"/>
<path fill-rule="evenodd" clip-rule="evenodd" d="M12.9258 16.1884C12.9258 16.412 12.6104 16.412 12.6104 16.1884C12.6104 15.9645 12.9258 15.9645 12.9258 16.1884Z" fill="#AFB6C4"/>
<path fill-rule="evenodd" clip-rule="evenodd" d="M13.517 16.1884C13.517 16.412 13.2017 16.412 13.2017 16.1884C13.2017 15.9645 13.517 15.9645 13.517 16.1884Z" fill="#AFB6C4"/>
<path fill-rule="evenodd" clip-rule="evenodd" d="M14.1474 16.1884C14.1474 16.412 13.8322 16.412 13.8322 16.1884C13.8322 15.9645 14.1474 15.9645 14.1474 16.1884Z" fill="#AFB6C4"/>
<path fill-rule="evenodd" clip-rule="evenodd" d="M14.7391 16.1884C14.7391 16.412 14.4237 16.412 14.4237 16.1884C14.4237 15.9645 14.7391 15.9645 14.7391 16.1884Z" fill="#AFB6C4"/>
<path fill-rule="evenodd" clip-rule="evenodd" d="M16.8671 13.8398C16.8671 14.0635 16.5516 14.0635 16.5516 13.8398C16.5516 13.6162 16.8671 13.6162 16.8671 13.8398Z" fill="#AFB6C4"/>
<path fill-rule="evenodd" clip-rule="evenodd" d="M17.4582 13.8398C17.4582 14.0635 17.143 14.0635 17.143 13.8398C17.143 13.6162 17.4582 13.6162 17.4582 13.8398Z" fill="#AFB6C4"/>
<path fill-rule="evenodd" clip-rule="evenodd" d="M18.0489 13.8398C18.0489 14.0635 17.7337 14.0635 17.7337 13.8398C17.7337 13.6162 18.0489 13.6162 18.0489 13.8398Z" fill="#AFB6C4"/>
<path fill-rule="evenodd" clip-rule="evenodd" d="M18.6799 13.8398C18.6799 14.0635 18.3644 14.0635 18.3644 13.8398C18.3644 13.6162 18.6799 13.6162 18.6799 13.8398Z" fill="#AFB6C4"/>
<path fill-rule="evenodd" clip-rule="evenodd" d="M19.271 13.8398C19.271 14.0635 18.9558 14.0635 18.9558 13.8398C18.9558 13.6162 19.271 13.6162 19.271 13.8398Z" fill="#AFB6C4"/>
<path fill-rule="evenodd" clip-rule="evenodd" d="M19.8621 13.8398C19.8621 14.0635 19.5469 14.0635 19.5469 13.8398C19.5469 13.6162 19.8621 13.6162 19.8621 13.8398Z" fill="#AFB6C4"/>
<path fill-rule="evenodd" clip-rule="evenodd" d="M16.8671 14.4272C16.8671 14.6509 16.5516 14.6509 16.5516 14.4272C16.5516 14.2036 16.8671 14.2036 16.8671 14.4272Z" fill="#AFB6C4"/>
<path fill-rule="evenodd" clip-rule="evenodd" d="M16.8671 14.9724C16.8671 15.196 16.5516 15.196 16.5516 14.9724C16.5516 14.7487 16.8671 14.7487 16.8671 14.9724Z" fill="#AFB6C4"/>
<path fill-rule="evenodd" clip-rule="evenodd" d="M16.8671 15.5593C16.8671 15.7829 16.5516 15.7829 16.5516 15.5593C16.5516 15.3356 16.8671 15.3356 16.8671 15.5593Z" fill="#AFB6C4"/>
<path fill-rule="evenodd" clip-rule="evenodd" d="M16.8671 16.1049C16.8671 16.3286 16.5516 16.3286 16.5516 16.1049C16.5516 15.8813 16.8671 15.8813 16.8671 16.1049Z" fill="#AFB6C4"/>
<path fill-rule="evenodd" clip-rule="evenodd" d="M16.8671 16.6918C16.8671 16.9155 16.5516 16.9155 16.5516 16.6918C16.5516 16.4681 16.8671 16.4681 16.8671 16.6918Z" fill="#AFB6C4"/>
<path fill-rule="evenodd" clip-rule="evenodd" d="M16.8671 17.2369C16.8671 17.4606 16.5516 17.4606 16.5516 17.2369C16.5516 17.0133 16.8671 17.0133 16.8671 17.2369Z" fill="#AFB6C4"/>
<path fill-rule="evenodd" clip-rule="evenodd" d="M16.8671 17.8244C16.8671 18.048 16.5516 18.048 16.5516 17.8244C16.5516 17.6007 16.8671 17.6007 16.8671 17.8244Z" fill="#AFB6C4"/>
<path fill-rule="evenodd" clip-rule="evenodd" d="M16.8671 18.3695C16.8671 18.5932 16.5516 18.5932 16.5516 18.3695C16.5516 18.1458 16.8671 18.1458 16.8671 18.3695Z" fill="#AFB6C4"/>
<path fill-rule="evenodd" clip-rule="evenodd" d="M16.8671 18.9564C16.8671 19.18 16.5516 19.18 16.5516 18.9564C16.5516 18.7327 16.8671 18.7327 16.8671 18.9564Z" fill="#AFB6C4"/>
<path fill-rule="evenodd" clip-rule="evenodd" d="M16.8671 19.5021C16.8671 19.7257 16.5516 19.7257 16.5516 19.5021C16.5516 19.2784 16.8671 19.2784 16.8671 19.5021Z" fill="#AFB6C4"/>
<path fill-rule="evenodd" clip-rule="evenodd" d="M17.4582 14.4272C17.4582 14.6509 17.143 14.6509 17.143 14.4272C17.143 14.2036 17.4582 14.2036 17.4582 14.4272Z" fill="#AFB6C4"/>
<path fill-rule="evenodd" clip-rule="evenodd" d="M17.4582 14.9724C17.4582 15.196 17.143 15.196 17.143 14.9724C17.143 14.7487 17.4582 14.7487 17.4582 14.9724Z" fill="#AFB6C4"/>
<path fill-rule="evenodd" clip-rule="evenodd" d="M17.4582 15.5593C17.4582 15.7829 17.143 15.7829 17.143 15.5593C17.143 15.3356 17.4582 15.3356 17.4582 15.5593Z" fill="#AFB6C4"/>
<path fill-rule="evenodd" clip-rule="evenodd" d="M17.4582 16.1049C17.4582 16.3286 17.143 16.3286 17.143 16.1049C17.143 15.8813 17.4582 15.8813 17.4582 16.1049Z" fill="#AFB6C4"/>
<path fill-rule="evenodd" clip-rule="evenodd" d="M17.4582 16.6918C17.4582 16.9155 17.143 16.9155 17.143 16.6918C17.143 16.4681 17.4582 16.4681 17.4582 16.6918Z" fill="#AFB6C4"/>
<path fill-rule="evenodd" clip-rule="evenodd" d="M17.4582 17.2369C17.4582 17.4606 17.143 17.4606 17.143 17.2369C17.143 17.0133 17.4582 17.0133 17.4582 17.2369Z" fill="#AFB6C4"/>
<path fill-rule="evenodd" clip-rule="evenodd" d="M17.4582 17.8244C17.4582 18.048 17.143 18.048 17.143 17.8244C17.143 17.6007 17.4582 17.6007 17.4582 17.8244Z" fill="#AFB6C4"/>
<path fill-rule="evenodd" clip-rule="evenodd" d="M17.4582 18.3695C17.4582 18.5932 17.143 18.5932 17.143 18.3695C17.143 18.1458 17.4582 18.1458 17.4582 18.3695Z" fill="#AFB6C4"/>
<path fill-rule="evenodd" clip-rule="evenodd" d="M17.4582 18.9564C17.4582 19.18 17.143 19.18 17.143 18.9564C17.143 18.7327 17.4582 18.7327 17.4582 18.9564Z" fill="#AFB6C4"/>
<path fill-rule="evenodd" clip-rule="evenodd" d="M17.4582 19.5021C17.4582 19.7257 17.143 19.7257 17.143 19.5021C17.143 19.2784 17.4582 19.2784 17.4582 19.5021Z" fill="#AFB6C4"/>
<path fill-rule="evenodd" clip-rule="evenodd" d="M18.0489 14.4272C18.0489 14.6509 17.7337 14.6509 17.7337 14.4272C17.7337 14.2036 18.0489 14.2036 18.0489 14.4272Z" fill="#AFB6C4"/>
<path fill-rule="evenodd" clip-rule="evenodd" d="M18.0489 14.9724C18.0489 15.196 17.7337 15.196 17.7337 14.9724C17.7337 14.7487 18.0489 14.7487 18.0489 14.9724Z" fill="#AFB6C4"/>
<path fill-rule="evenodd" clip-rule="evenodd" d="M18.0489 15.5593C18.0489 15.7829 17.7337 15.7829 17.7337 15.5593C17.7337 15.3356 18.0489 15.3356 18.0489 15.5593Z" fill="#AFB6C4"/>
<path fill-rule="evenodd" clip-rule="evenodd" d="M18.0489 16.1049C18.0489 16.3286 17.7337 16.3286 17.7337 16.1049C17.7337 15.8813 18.0489 15.8813 18.0489 16.1049Z" fill="#AFB6C4"/>
<path fill-rule="evenodd" clip-rule="evenodd" d="M18.0489 16.6918C18.0489 16.9155 17.7337 16.9155 17.7337 16.6918C17.7337 16.4681 18.0489 16.4681 18.0489 16.6918Z" fill="#AFB6C4"/>
<path fill-rule="evenodd" clip-rule="evenodd" d="M18.0489 17.2369C18.0489 17.4606 17.7337 17.4606 17.7337 17.2369C17.7337 17.0133 18.0489 17.0133 18.0489 17.2369Z" fill="#AFB6C4"/>
<path fill-rule="evenodd" clip-rule="evenodd" d="M18.0489 17.8244C18.0489 18.048 17.7337 18.048 17.7337 17.8244C17.7337 17.6007 18.0489 17.6007 18.0489 17.8244Z" fill="#AFB6C4"/>
<path fill-rule="evenodd" clip-rule="evenodd" d="M18.0489 18.3695C18.0489 18.5932 17.7337 18.5932 17.7337 18.3695C17.7337 18.1458 18.0489 18.1458 18.0489 18.3695Z" fill="#AFB6C4"/>
<path fill-rule="evenodd" clip-rule="evenodd" d="M18.0489 18.9564C18.0489 19.18 17.7337 19.18 17.7337 18.9564C17.7337 18.7327 18.0489 18.7327 18.0489 18.9564Z" fill="#AFB6C4"/>
<path fill-rule="evenodd" clip-rule="evenodd" d="M18.0489 19.5021C18.0489 19.7257 17.7337 19.7257 17.7337 19.5021C17.7337 19.2784 18.0489 19.2784 18.0489 19.5021Z" fill="#AFB6C4"/>
<path fill-rule="evenodd" clip-rule="evenodd" d="M18.6799 14.4272C18.6799 14.6509 18.3644 14.6509 18.3644 14.4272C18.3644 14.2036 18.6799 14.2036 18.6799 14.4272Z" fill="#AFB6C4"/>
<path fill-rule="evenodd" clip-rule="evenodd" d="M18.6799 14.9724C18.6799 15.196 18.3644 15.196 18.3644 14.9724C18.3644 14.7487 18.6799 14.7487 18.6799 14.9724Z" fill="#AFB6C4"/>
<path fill-rule="evenodd" clip-rule="evenodd" d="M18.6799 15.5593C18.6799 15.7829 18.3644 15.7829 18.3644 15.5593C18.3644 15.3356 18.6799 15.3356 18.6799 15.5593Z" fill="#AFB6C4"/>
<path fill-rule="evenodd" clip-rule="evenodd" d="M18.6799 16.1049C18.6799 16.3286 18.3644 16.3286 18.3644 16.1049C18.3644 15.8813 18.6799 15.8813 18.6799 16.1049Z" fill="#AFB6C4"/>
<path fill-rule="evenodd" clip-rule="evenodd" d="M18.6799 16.6918C18.6799 16.9155 18.3644 16.9155 18.3644 16.6918C18.3644 16.4681 18.6799 16.4681 18.6799 16.6918Z" fill="#AFB6C4"/>
<path fill-rule="evenodd" clip-rule="evenodd" d="M18.6799 17.2369C18.6799 17.4606 18.3644 17.4606 18.3644 17.2369C18.3644 17.0133 18.6799 17.0133 18.6799 17.2369Z" fill="#AFB6C4"/>
<path fill-rule="evenodd" clip-rule="evenodd" d="M18.6799 17.8244C18.6799 18.048 18.3644 18.048 18.3644 17.8244C18.3644 17.6007 18.6799 17.6007 18.6799 17.8244Z" fill="#AFB6C4"/>
<path fill-rule="evenodd" clip-rule="evenodd" d="M18.6799 18.3695C18.6799 18.5932 18.3644 18.5932 18.3644 18.3695C18.3644 18.1458 18.6799 18.1458 18.6799 18.3695Z" fill="#AFB6C4"/>
<path fill-rule="evenodd" clip-rule="evenodd" d="M18.6799 18.9564C18.6799 19.18 18.3644 19.18 18.3644 18.9564C18.3644 18.7327 18.6799 18.7327 18.6799 18.9564Z" fill="#AFB6C4"/>
<path fill-rule="evenodd" clip-rule="evenodd" d="M18.6799 19.5021C18.6799 19.7257 18.3644 19.7257 18.3644 19.5021C18.3644 19.2784 18.6799 19.2784 18.6799 19.5021Z" fill="#AFB6C4"/>
<path fill-rule="evenodd" clip-rule="evenodd" d="M19.271 14.4272C19.271 14.6509 18.9558 14.6509 18.9558 14.4272C18.9558 14.2036 19.271 14.2036 19.271 14.4272Z" fill="#AFB6C4"/>
<path fill-rule="evenodd" clip-rule="evenodd" d="M19.271 14.9724C19.271 15.196 18.9558 15.196 18.9558 14.9724C18.9558 14.7487 19.271 14.7487 19.271 14.9724Z" fill="#AFB6C4"/>
<path fill-rule="evenodd" clip-rule="evenodd" d="M19.271 15.5593C19.271 15.7829 18.9558 15.7829 18.9558 15.5593C18.9558 15.3356 19.271 15.3356 19.271 15.5593Z" fill="#AFB6C4"/>
<path fill-rule="evenodd" clip-rule="evenodd" d="M19.271 16.1049C19.271 16.3286 18.9558 16.3286 18.9558 16.1049C18.9558 15.8813 19.271 15.8813 19.271 16.1049Z" fill="#AFB6C4"/>
<path fill-rule="evenodd" clip-rule="evenodd" d="M19.271 16.6918C19.271 16.9155 18.9558 16.9155 18.9558 16.6918C18.9558 16.4681 19.271 16.4681 19.271 16.6918Z" fill="#AFB6C4"/>
<path fill-rule="evenodd" clip-rule="evenodd" d="M19.271 17.2369C19.271 17.4606 18.9558 17.4606 18.9558 17.2369C18.9558 17.0133 19.271 17.0133 19.271 17.2369Z" fill="#AFB6C4"/>
<path fill-rule="evenodd" clip-rule="evenodd" d="M19.271 17.8244C19.271 18.048 18.9558 18.048 18.9558 17.8244C18.9558 17.6007 19.271 17.6007 19.271 17.8244Z" fill="#AFB6C4"/>
<path fill-rule="evenodd" clip-rule="evenodd" d="M19.271 18.3695C19.271 18.5932 18.9558 18.5932 18.9558 18.3695C18.9558 18.1458 19.271 18.1458 19.271 18.3695Z" fill="#AFB6C4"/>
<path fill-rule="evenodd" clip-rule="evenodd" d="M19.271 18.9564C19.271 19.18 18.9558 19.18 18.9558 18.9564C18.9558 18.7327 19.271 18.7327 19.271 18.9564Z" fill="#AFB6C4"/>
<path fill-rule="evenodd" clip-rule="evenodd" d="M19.271 19.5021C19.271 19.7257 18.9558 19.7257 18.9558 19.5021C18.9558 19.2784 19.271 19.2784 19.271 19.5021Z" fill="#AFB6C4"/>
<path fill-rule="evenodd" clip-rule="evenodd" d="M19.8621 14.4272C19.8621 14.6509 19.5469 14.6509 19.5469 14.4272C19.5469 14.2036 19.8621 14.2036 19.8621 14.4272Z" fill="#AFB6C4"/>
<path fill-rule="evenodd" clip-rule="evenodd" d="M19.8621 14.9724C19.8621 15.196 19.5469 15.196 19.5469 14.9724C19.5469 14.7487 19.8621 14.7487 19.8621 14.9724Z" fill="#AFB6C4"/>
<path fill-rule="evenodd" clip-rule="evenodd" d="M19.8621 15.5593C19.8621 15.7829 19.5469 15.7829 19.5469 15.5593C19.5469 15.3356 19.8621 15.3356 19.8621 15.5593Z" fill="#AFB6C4"/>
<path fill-rule="evenodd" clip-rule="evenodd" d="M19.8621 16.1049C19.8621 16.3286 19.5469 16.3286 19.5469 16.1049C19.5469 15.8813 19.8621 15.8813 19.8621 16.1049Z" fill="#AFB6C4"/>
<path fill-rule="evenodd" clip-rule="evenodd" d="M19.8621 16.6918C19.8621 16.9155 19.5469 16.9155 19.5469 16.6918C19.5469 16.4681 19.8621 16.4681 19.8621 16.6918Z" fill="#AFB6C4"/>
<path fill-rule="evenodd" clip-rule="evenodd" d="M19.8621 17.2369C19.8621 17.4606 19.5469 17.4606 19.5469 17.2369C19.5469 17.0133 19.8621 17.0133 19.8621 17.2369Z" fill="#AFB6C4"/>
<path fill-rule="evenodd" clip-rule="evenodd" d="M19.8621 17.8244C19.8621 18.048 19.5469 18.048 19.5469 17.8244C19.5469 17.6007 19.8621 17.6007 19.8621 17.8244Z" fill="#AFB6C4"/>
<path fill-rule="evenodd" clip-rule="evenodd" d="M19.8621 18.3695C19.8621 18.5932 19.5469 18.5932 19.5469 18.3695C19.5469 18.1458 19.8621 18.1458 19.8621 18.3695Z" fill="#AFB6C4"/>
<path fill-rule="evenodd" clip-rule="evenodd" d="M19.8621 18.9564C19.8621 19.18 19.5469 19.18 19.5469 18.9564C19.5469 18.7327 19.8621 18.7327 19.8621 18.9564Z" fill="#AFB6C4"/>
<path fill-rule="evenodd" clip-rule="evenodd" d="M19.8621 19.5021C19.8621 19.7257 19.5469 19.7257 19.5469 19.5021C19.5469 19.2784 19.8621 19.2784 19.8621 19.5021Z" fill="#AFB6C4"/>
<path fill-rule="evenodd" clip-rule="evenodd" d="M16.8671 19.9209C16.8671 20.1446 16.5516 20.1446 16.5516 19.9209C16.5516 19.6973 16.8671 19.6973 16.8671 19.9209Z" fill="#AFB6C4"/>
<path fill-rule="evenodd" clip-rule="evenodd" d="M17.4582 19.9209C17.4582 20.1446 17.143 20.1446 17.143 19.9209C17.143 19.6973 17.4582 19.6973 17.4582 19.9209Z" fill="#AFB6C4"/>
<path fill-rule="evenodd" clip-rule="evenodd" d="M18.0489 19.9209C18.0489 20.1446 17.7337 20.1446 17.7337 19.9209C17.7337 19.6973 18.0489 19.6973 18.0489 19.9209Z" fill="#AFB6C4"/>
<path fill-rule="evenodd" clip-rule="evenodd" d="M18.6799 19.9209C18.6799 20.1446 18.3644 20.1446 18.3644 19.9209C18.3644 19.6973 18.6799 19.6973 18.6799 19.9209Z" fill="#AFB6C4"/>
<path fill-rule="evenodd" clip-rule="evenodd" d="M19.271 19.9209C19.271 20.1446 18.9558 20.1446 18.9558 19.9209C18.9558 19.6973 19.271 19.6973 19.271 19.9209Z" fill="#AFB6C4"/>
<path fill-rule="evenodd" clip-rule="evenodd" d="M19.8621 19.9209C19.8621 20.1446 19.5469 20.1446 19.5469 19.9209C19.5469 19.6973 19.8621 19.6973 19.8621 19.9209Z" fill="#AFB6C4"/>
<path fill-rule="evenodd" clip-rule="evenodd" d="M6.58129 20.7181C6.58129 20.9417 6.26604 20.9417 6.26604 20.7181C6.26604 20.4944 6.58129 20.4944 6.58129 20.7181Z" fill="#AFB6C4"/>
<path fill-rule="evenodd" clip-rule="evenodd" d="M6.58129 21.3049C6.58129 21.5286 6.26604 21.5286 6.26604 21.3049C6.26604 21.0812 6.58129 21.0812 6.58129 21.3049Z" fill="#AFB6C4"/>
<path fill-rule="evenodd" clip-rule="evenodd" d="M6.58129 21.8506C6.58129 22.0743 6.26604 22.0743 6.26604 21.8506C6.26604 21.627 6.58129 21.627 6.58129 21.8506Z" fill="#AFB6C4"/>
<path fill-rule="evenodd" clip-rule="evenodd" d="M6.58129 22.4375C6.58129 22.6611 6.26604 22.6611 6.26604 22.4375C6.26604 22.2138 6.58129 22.2138 6.58129 22.4375Z" fill="#AFB6C4"/>
<path fill-rule="evenodd" clip-rule="evenodd" d="M6.58129 22.9826C6.58129 23.2063 6.26604 23.2063 6.26604 22.9826C6.26604 22.759 6.58129 22.759 6.58129 22.9826Z" fill="#AFB6C4"/>
<path fill-rule="evenodd" clip-rule="evenodd" d="M7.17239 20.7181C7.17239 20.9417 6.85714 20.9417 6.85714 20.7181C6.85714 20.4944 7.17239 20.4944 7.17239 20.7181Z" fill="#AFB6C4"/>
<path fill-rule="evenodd" clip-rule="evenodd" d="M7.17239 21.3049C7.17239 21.5286 6.85714 21.5286 6.85714 21.3049C6.85714 21.0812 7.17239 21.0812 7.17239 21.3049Z" fill="#AFB6C4"/>
<path fill-rule="evenodd" clip-rule="evenodd" d="M7.17239 21.8506C7.17239 22.0743 6.85714 22.0743 6.85714 21.8506C6.85714 21.627 7.17239 21.627 7.17239 21.8506Z" fill="#AFB6C4"/>
<path fill-rule="evenodd" clip-rule="evenodd" d="M7.17239 22.4375C7.17239 22.6611 6.85714 22.6611 6.85714 22.4375C6.85714 22.2138 7.17239 22.2138 7.17239 22.4375Z" fill="#AFB6C4"/>
<path fill-rule="evenodd" clip-rule="evenodd" d="M7.17239 22.9826C7.17239 23.2063 6.85714 23.2063 6.85714 22.9826C6.85714 22.759 7.17239 22.759 7.17239 22.9826Z" fill="#AFB6C4"/>
<path fill-rule="evenodd" clip-rule="evenodd" d="M7.76363 20.7181C7.76363 20.9417 7.44838 20.9417 7.44838 20.7181C7.44838 20.4944 7.76363 20.4944 7.76363 20.7181Z" fill="#AFB6C4"/>
<path fill-rule="evenodd" clip-rule="evenodd" d="M7.76363 21.3049C7.76363 21.5286 7.44838 21.5286 7.44838 21.3049C7.44838 21.0812 7.76363 21.0812 7.76363 21.3049Z" fill="#AFB6C4"/>
<path fill-rule="evenodd" clip-rule="evenodd" d="M7.76363 21.8506C7.76363 22.0743 7.44838 22.0743 7.44838 21.8506C7.44838 21.627 7.76363 21.627 7.76363 21.8506Z" fill="#AFB6C4"/>
<path fill-rule="evenodd" clip-rule="evenodd" d="M7.76363 22.4375C7.76363 22.6611 7.44838 22.6611 7.44838 22.4375C7.44838 22.2138 7.76363 22.2138 7.76363 22.4375Z" fill="#AFB6C4"/>
<path fill-rule="evenodd" clip-rule="evenodd" d="M7.76363 22.9826C7.76363 23.2063 7.44838 23.2063 7.44838 22.9826C7.44838 22.759 7.76363 22.759 7.76363 22.9826Z" fill="#AFB6C4"/>
<path fill-rule="evenodd" clip-rule="evenodd" d="M8.39393 20.7181C8.39393 20.9417 8.07868 20.9417 8.07868 20.7181C8.07868 20.4944 8.39393 20.4944 8.39393 20.7181Z" fill="#AFB6C4"/>
<path fill-rule="evenodd" clip-rule="evenodd" d="M8.39393 21.3049C8.39393 21.5286 8.07868 21.5286 8.07868 21.3049C8.07868 21.0812 8.39393 21.0812 8.39393 21.3049Z" fill="#AFB6C4"/>
<path fill-rule="evenodd" clip-rule="evenodd" d="M8.39393 21.8506C8.39393 22.0743 8.07868 22.0743 8.07868 21.8506C8.07868 21.627 8.39393 21.627 8.39393 21.8506Z" fill="#AFB6C4"/>
<path fill-rule="evenodd" clip-rule="evenodd" d="M8.39393 22.4375C8.39393 22.6611 8.07868 22.6611 8.07868 22.4375C8.07868 22.2138 8.39393 22.2138 8.39393 22.4375Z" fill="#AFB6C4"/>
<path fill-rule="evenodd" clip-rule="evenodd" d="M8.39393 22.9826C8.39393 23.2063 8.07868 23.2063 8.07868 22.9826C8.07868 22.759 8.39393 22.759 8.39393 22.9826Z" fill="#AFB6C4"/>
<path fill-rule="evenodd" clip-rule="evenodd" d="M8.98524 20.7181C8.98524 20.9417 8.66978 20.9417 8.66978 20.7181C8.66978 20.4944 8.98524 20.4944 8.98524 20.7181Z" fill="#AFB6C4"/>
<path fill-rule="evenodd" clip-rule="evenodd" d="M8.98524 21.3049C8.98524 21.5286 8.66978 21.5286 8.66978 21.3049C8.66978 21.0812 8.98524 21.0812 8.98524 21.3049Z" fill="#AFB6C4"/>
<path fill-rule="evenodd" clip-rule="evenodd" d="M8.98524 21.8506C8.98524 22.0743 8.66978 22.0743 8.66978 21.8506C8.66978 21.627 8.98524 21.627 8.98524 21.8506Z" fill="#AFB6C4"/>
<path fill-rule="evenodd" clip-rule="evenodd" d="M8.98524 22.4375C8.98524 22.6611 8.66978 22.6611 8.66978 22.4375C8.66978 22.2138 8.98524 22.2138 8.98524 22.4375Z" fill="#AFB6C4"/>
<path fill-rule="evenodd" clip-rule="evenodd" d="M8.98524 22.9826C8.98524 23.2063 8.66978 23.2063 8.66978 22.9826C8.66978 22.759 8.98524 22.759 8.98524 22.9826Z" fill="#AFB6C4"/>
<path fill-rule="evenodd" clip-rule="evenodd" d="M9.57641 20.7181C9.57641 20.9417 9.26116 20.9417 9.26116 20.7181C9.26116 20.4944 9.57641 20.4944 9.57641 20.7181Z" fill="#AFB6C4"/>
<path fill-rule="evenodd" clip-rule="evenodd" d="M9.57641 21.3049C9.57641 21.5286 9.26116 21.5286 9.26116 21.3049C9.26116 21.0812 9.57641 21.0812 9.57641 21.3049Z" fill="#AFB6C4"/>
<path fill-rule="evenodd" clip-rule="evenodd" d="M9.57641 21.8506C9.57641 22.0743 9.26116 22.0743 9.26116 21.8506C9.26116 21.627 9.57641 21.627 9.57641 21.8506Z" fill="#AFB6C4"/>
<path fill-rule="evenodd" clip-rule="evenodd" d="M9.57641 22.4375C9.57641 22.6611 9.26116 22.6611 9.26116 22.4375C9.26116 22.2138 9.57641 22.2138 9.57641 22.4375Z" fill="#AFB6C4"/>
<path fill-rule="evenodd" clip-rule="evenodd" d="M9.57641 22.9826C9.57641 23.2063 9.26116 23.2063 9.26116 22.9826C9.26116 22.759 9.57641 22.759 9.57641 22.9826Z" fill="#AFB6C4"/>
<path fill-rule="evenodd" clip-rule="evenodd" d="M21.9503 24.4089C21.9503 24.6326 21.635 24.6326 21.635 24.4089C21.635 24.1852 21.9503 24.1852 21.9503 24.4089Z" fill="#AFB6C4"/>
<path fill-rule="evenodd" clip-rule="evenodd" d="M22.5812 24.4089C22.5812 24.6326 22.2658 24.6326 22.2658 24.4089C22.2658 24.1852 22.5812 24.1852 22.5812 24.4089Z" fill="#AFB6C4"/>
<path fill-rule="evenodd" clip-rule="evenodd" d="M23.1724 24.4089C23.1724 24.6326 22.8571 24.6326 22.8571 24.4089C22.8571 24.1852 23.1724 24.1852 23.1724 24.4089Z" fill="#AFB6C4"/>
<path fill-rule="evenodd" clip-rule="evenodd" d="M23.7636 24.4089C23.7636 24.6326 23.4484 24.6326 23.4484 24.4089C23.4484 24.1852 23.7636 24.1852 23.7636 24.4089Z" fill="#AFB6C4"/>
<path fill-rule="evenodd" clip-rule="evenodd" d="M24.3549 24.4089C24.3549 24.6326 24.0396 24.6326 24.0396 24.4089C24.0396 24.1852 24.3549 24.1852 24.3549 24.4089Z" fill="#AFB6C4"/>
<path fill-rule="evenodd" clip-rule="evenodd" d="M24.946 24.4089C24.946 24.6326 24.6307 24.6326 24.6307 24.4089C24.6307 24.1852 24.946 24.1852 24.946 24.4089Z" fill="#AFB6C4"/>
<path fill-rule="evenodd" clip-rule="evenodd" d="M21.9503 24.9957C21.9503 25.2194 21.635 25.2194 21.635 24.9957C21.635 24.7721 21.9503 24.7721 21.9503 24.9957Z" fill="#AFB6C4"/>
<path fill-rule="evenodd" clip-rule="evenodd" d="M22.5812 24.9957C22.5812 25.2194 22.2658 25.2194 22.2658 24.9957C22.2658 24.7721 22.5812 24.7721 22.5812 24.9957Z" fill="#AFB6C4"/>
<path fill-rule="evenodd" clip-rule="evenodd" d="M23.1724 24.9957C23.1724 25.2194 22.8571 25.2194 22.8571 24.9957C22.8571 24.7721 23.1724 24.7721 23.1724 24.9957Z" fill="#AFB6C4"/>
<path fill-rule="evenodd" clip-rule="evenodd" d="M23.7636 24.9957C23.7636 25.2194 23.4484 25.2194 23.4484 24.9957C23.4484 24.7721 23.7636 24.7721 23.7636 24.9957Z" fill="#AFB6C4"/>
<path fill-rule="evenodd" clip-rule="evenodd" d="M24.3549 24.9957C24.3549 25.2194 24.0396 25.2194 24.0396 24.9957C24.0396 24.7721 24.3549 24.7721 24.3549 24.9957Z" fill="#AFB6C4"/>
<path fill-rule="evenodd" clip-rule="evenodd" d="M24.946 24.9957C24.946 25.2194 24.6307 25.2194 24.6307 24.9957C24.6307 24.7721 24.946 24.7721 24.946 24.9957Z" fill="#AFB6C4"/>
</svg>
