<svg width="32" height="32" viewBox="0 0 32 32" fill="none" xmlns="http://www.w3.org/2000/svg">
<path d="M20.9016 5.68883H22.8601V7.82214H20.9016V5.68883Z" fill="#AFB6C4"/>
<path d="M20.9016 8.53324H22.8601V10.6665H20.9016V8.53324Z" fill="#AFB6C4"/>
<path d="M15.8482 16.9828L0 25.0322L0.275421 25.682L2.14913 24.7306L2.15817 24.722L9.92819 20.7853C9.95092 20.7644 9.97657 20.7482 10.0043 20.7358L10.2523 20.6221L15.2139 18.0965L16.1279 17.6355L15.8482 16.9828Z" fill="#AFB6C4"/>
<path d="M10.2546 21.4046L9.92818 21.5611L2.61628 25.2731V32H15.0204V18.9726L10.3199 21.3618C10.3001 21.3789 10.2779 21.3935 10.2546 21.4046ZM9.79761 30.5782H7.83907V28.4449H9.79761V30.5782ZM9.79761 27.7338H7.83907V25.6005H9.79761V27.7338ZM10.4505 25.6005H12.409V27.7338H10.4505V25.6005ZM10.4505 28.4449H12.409V30.5782H10.4505V28.4449Z" fill="#AFB6C4"/>
<path d="M15.6788 28.4441H22.8601V31.9996H15.6788V28.4441Z" fill="#AFB6C4"/>
<path d="M23.513 0.000418522V14.1509L27.7303 16.2986L27.7955 16.3271H27.8087C27.9637 16.4167 28.0313 16.6192 27.9655 16.7963L27.4169 18.1049C27.3799 18.1865 27.3138 18.2478 27.2342 18.2754C27.1503 18.3109 27.057 18.3109 26.9731 18.2754L26.1244 17.8344V31.9996H32V0L23.513 0.000418522ZM28.0829 13.5114H26.1244V11.3781H28.0829V13.5114ZM28.0829 10.667H26.1244V8.53365H28.0829V10.667ZM28.0829 7.82254H26.1244V5.68924H28.0829V7.82254ZM28.0829 4.97813H26.1244V2.84483H28.0829V4.97813ZM30.6943 13.5114H28.7358V11.3781H30.6943V13.5114ZM30.6943 10.667H28.7358V8.53365H30.6943V10.667ZM30.6943 7.82254H28.7358V5.68924H30.6943V7.82254ZM30.6943 4.97813H28.7358V2.84483H30.6943V4.97813Z" fill="#AFB6C4"/>
<path d="M18.2902 8.53324H20.2488V10.6665H18.2902V8.53324Z" fill="#AFB6C4"/>
<path d="M18.2902 5.68883H20.2488V7.82214H18.2902V5.68883Z" fill="#AFB6C4"/>
<path d="M18.1463 11.4638C18.1935 11.4641 18.2404 11.4752 18.2835 11.4965L22.8599 13.8203V11.3784H17.9583C17.7782 11.3778 17.6325 11.2191 17.6319 11.0229V5.33404C17.6325 5.13785 17.7782 4.97913 17.9583 4.97849H22.8547V4.26739H16.979V12.0184L18.004 11.4994C18.0483 11.4762 18.097 11.4641 18.1463 11.4638Z" fill="#AFB6C4"/>
<path d="M9.99349 17.1453L18.0127 13.0765C18.0996 13.0346 18.1987 13.0346 18.2855 13.0765L26.9576 17.4853L27.2318 16.8368L18.1479 12.2187L16.7912 12.9057H16.7781L9.0599 16.8311L9.33532 17.4825L9.99349 17.1453Z" fill="#AFB6C4"/>
<path d="M21.4433 15.4695L18.1452 13.7886L10.4625 17.6882V18.9256L15.8692 16.1892C15.9473 16.1488 16.0368 16.1444 16.1178 16.1765C16.1991 16.2085 16.265 16.2746 16.3014 16.3596L16.8642 17.6539C16.9006 17.74 16.9044 17.838 16.8747 17.9269C16.845 18.0158 16.7844 18.0882 16.7063 18.1292L15.68 18.6482L15.6798 27.7332H23.1812C23.2677 27.7332 23.3508 27.7707 23.412 27.8374C23.4732 27.904 23.5076 27.9945 23.5076 28.0888V31.9999H25.4661V17.5064L21.4433 15.4695Z" fill="#AFB6C4"/>
</svg>
