<svg width="32" height="32" viewBox="0 0 32 32" fill="none" xmlns="http://www.w3.org/2000/svg">
<path d="M30.2461 21.2844C29.7823 21.2833 29.338 21.0912 29.0106 20.7501C28.6832 20.409 28.4995 19.9471 28.5 19.4655C28.5003 18.9838 28.6846 18.5222 29.0126 18.1817C29.3402 17.8412 29.785 17.6497 30.2488 17.6494C30.7123 17.6491 31.1573 17.8397 31.4855 18.1797C31.814 18.5197 31.9989 18.9813 32 19.4629C32 19.946 31.8154 20.4093 31.4863 20.7507C31.1573 21.0924 30.7112 21.2845 30.246 21.2845L30.2461 21.2844ZM30.2461 18.1499C29.9099 18.1499 29.5872 18.2887 29.3493 18.5357C29.1115 18.7826 28.9779 19.1175 28.9779 19.4669C28.9779 19.816 29.1115 20.1511 29.3493 20.3981C29.5872 20.6451 29.9098 20.7839 30.2461 20.7839C30.5825 20.7839 30.9049 20.6451 31.1428 20.3981C31.3806 20.1512 31.5142 19.816 31.5142 19.4669C31.5153 19.1169 31.3822 18.7809 31.1441 18.5331C30.9063 18.2853 30.5831 18.1459 30.2461 18.1459L30.2461 18.1499Z" fill="#9B9997"/>
<path d="M16.1063 24.9395C16.4117 23.903 17.1311 23.0527 18.0816 22.6051C19.01 22.236 20.3295 22.2154 20.5902 21.2226H20.5905C20.6434 20.7693 20.5976 20.3094 20.456 19.877C20.1479 18.0512 21.5385 16.0943 23.3085 15.8113C23.7521 15.7043 24.2187 15.8016 24.5885 16.0777C24.9837 16.4306 25.0507 17.0378 25.0507 17.5793C24.9906 18.1219 25.0796 18.6708 25.3075 19.163C25.5762 19.598 26.4492 19.7906 26.781 19.4174C27.5383 16.6956 27.368 13.7857 26.299 11.1792L26.1726 11.253L24.6674 12.2417C24.3433 12.4549 23.9327 12.6724 23.5968 12.4838H23.597C23.4168 12.3502 23.2727 12.1708 23.1782 11.9627C22.5325 10.9116 21.4197 10.2697 20.2191 10.2562C19.4684 10.2562 18.5717 10.4614 18.0859 9.87047C17.8464 9.48213 17.729 9.02628 17.75 8.56576C17.6356 7.10536 16.166 4.92269 15.4073 3.69189C12.9661 3.69132 10.5843 4.47374 8.58745 5.93208C6.59034 7.39043 5.07585 9.45376 4.25073 11.8397L4.32183 11.7864C5.94327 11.2521 7.69156 11.3057 9.27992 11.9381C9.62163 12.0969 9.98842 12.1902 10.3624 12.2131C10.5997 12.2031 10.8317 12.1387 11.0419 12.0243C11.9665 11.54 12.4485 10.3833 13.4125 9.97293C14.6172 9.38627 16.1974 10.5596 16.1106 11.9424C15.9959 13.5261 14.1353 14.8348 14.6845 16.3201C14.8898 16.8861 15.4034 17.2556 15.7631 17.7355C16.1227 18.2154 16.2844 18.991 15.8262 19.3764C15.2651 19.8277 14.3604 19.2327 13.7599 19.6265C13.3965 19.8686 13.3055 20.3692 13.0765 20.7506C12.476 21.7434 10.7457 21.5342 10.3823 20.4224C10.2084 19.885 10.2913 19.1915 9.88045 18.8347C9.29981 18.3055 8.42655 18.8962 7.88144 19.4623L5.24638 22.1947L5.18327 22.2356L5.183 22.2359C6.22991 24.0855 7.72409 25.6191 9.51745 26.684C11.3109 27.7491 13.3413 28.3089 15.4073 28.3077H15.6798L15.6522 28.1149C15.6558 27.0391 15.8088 25.9697 16.1064 24.9394L16.1063 24.9395Z" fill="#9B9997"/>
<path d="M15.4072 28.7183C13.2726 28.7123 11.1763 28.13 9.32399 27.0279C7.47185 25.9258 5.9278 24.3424 4.84343 22.433L4.65384 22.0965L4.99362 21.8627L7.60109 19.1592C8.53746 18.1868 9.50916 17.9283 10.1375 18.511H10.1372C10.4563 18.8475 10.6448 19.2945 10.6666 19.7662C10.6869 19.9399 10.7214 20.1116 10.7693 20.279C10.9468 20.6533 11.2946 20.9086 11.6936 20.9575C12.0924 21.0065 12.4881 20.8422 12.7446 20.5211C12.81 20.4064 12.8681 20.287 12.9183 20.1643C13.0384 19.8117 13.2572 19.5046 13.5466 19.2823C13.9381 19.0719 14.3887 19.0124 14.8186 19.114C15.0718 19.1858 15.3413 19.1641 15.5811 19.0525C15.6536 18.9904 15.6977 18.8996 15.7035 18.802C15.7203 18.505 15.6285 18.2119 15.4466 17.9816C15.3218 17.8379 15.1901 17.7011 15.0517 17.5715C14.7268 17.267 14.467 16.8953 14.2892 16.48C13.894 15.4504 14.4433 14.5478 14.9569 13.6781C15.338 13.153 15.5973 12.5437 15.7153 11.8975C15.7018 11.3552 15.4416 10.8515 15.0142 10.5393C14.5868 10.2273 14.0426 10.1435 13.5465 10.3138C13.126 10.5533 12.7565 10.8784 12.46 11.2699C12.1127 11.7141 11.6894 12.0881 11.2116 12.3734C10.9501 12.5159 10.6613 12.5957 10.3662 12.6072C9.99115 12.5974 9.62109 12.5139 9.27604 12.3611L9.14542 12.3078C7.66034 11.7114 6.02514 11.6522 4.50366 12.1396L3.42896 13.0052L3.87924 11.7005H3.87952C4.73602 9.23797 6.30209 7.10877 8.36445 5.60266C10.4268 4.09655 12.8858 3.28606 15.4073 3.28174H15.6244L16.0196 3.90932C16.8731 5.26723 18.0423 7.12997 18.149 8.52882V8.63585C18.1352 8.9744 18.2176 9.3098 18.386 9.59997C18.6508 9.91992 19.176 9.8913 19.7451 9.85839H20.2191C21.5631 9.86154 22.812 10.5781 23.5298 11.7581L23.5734 11.8359C23.628 11.9529 23.7062 12.0563 23.8024 12.1395C23.9763 12.238 24.3516 11.9919 24.474 11.9097L26.1214 10.8348L26.5165 10.6093L26.6904 11.0197V11.0194C27.7885 13.7138 27.9589 16.7189 27.1724 19.528L27.1448 19.6225L27.0817 19.6963H27.0815C26.826 19.9536 26.4694 20.072 26.1175 20.0162C25.6697 19.9885 25.2563 19.7572 24.9876 19.3844C24.7258 18.8724 24.6145 18.2917 24.6677 17.7145V17.5791C24.6677 16.9556 24.5649 16.5904 24.3398 16.3895C24.0537 16.2001 23.7062 16.138 23.3758 16.2172C22.5609 16.3678 21.839 16.8528 21.3726 17.5628C20.9155 18.2062 20.7261 19.0132 20.8474 19.8027C20.8474 19.9012 20.8868 19.9996 20.9105 20.1024C21.0318 20.5004 21.0535 20.924 20.9736 21.3332C20.7206 22.2933 19.7884 22.5435 18.9785 22.7609H18.9788C18.7233 22.823 18.4714 22.8997 18.2243 22.9907C17.3758 23.3899 16.7359 24.1518 16.47 25.079C16.1892 26.0563 16.0442 27.0702 16.0395 28.0902L16.1263 28.7054H15.5851L15.4072 28.7183ZM5.69295 22.3017C7.76688 25.7304 11.3705 27.8361 15.269 27.8976C15.2797 26.8488 15.4368 25.8068 15.7352 24.8043C16.0775 23.6504 16.8865 22.7083 17.9514 22.2238C18.2258 22.1213 18.5053 22.0352 18.7891 21.9654C19.5792 21.7479 20.0967 21.5839 20.2193 21.116H20.219C20.2571 20.8404 20.2328 20.5597 20.1479 20.2955C20.1242 20.1848 20.0967 20.074 20.0768 19.9633C19.9153 18.9528 20.1532 17.9174 20.7366 17.0912C21.3263 16.2012 22.2362 15.5948 23.2611 15.4093C23.8197 15.2774 24.4055 15.4096 24.8611 15.7702C25.3984 16.2501 25.4615 17.0337 25.4615 17.5837V17.7191C25.4155 18.1401 25.4825 18.5659 25.6553 18.95C25.7953 19.1051 25.9879 19.1978 26.1924 19.2084C26.2803 19.2195 26.3696 19.2098 26.4531 19.1795C27.1018 16.7444 26.9868 14.1579 26.1254 11.7947L24.8969 12.6152C24.6321 12.7915 24.0079 13.2018 23.4273 12.8696H23.427C23.2032 12.7136 23.0252 12.4964 22.9133 12.2417L22.8739 12.1719V12.1722C22.2996 11.2369 21.3067 10.6697 20.2389 10.6663H19.8043C19.1446 10.7032 18.3228 10.7484 17.8053 10.1206V10.1208C17.5203 9.70588 17.3721 9.20653 17.3825 8.69707V8.59463C17.2916 7.40068 16.1419 5.57091 15.3797 4.3566L15.2218 4.10218H15.2215C13.0373 4.14826 10.9109 4.83993 9.09161 6.09629C7.27229 7.35257 5.83574 9.12147 4.95003 11.1956C6.44611 10.8645 8.00258 10.987 9.43391 11.5482L9.57224 11.6014V11.6017C9.82246 11.7153 10.0898 11.7835 10.3623 11.8026C10.5403 11.7952 10.7145 11.7463 10.8718 11.6593C11.2631 11.4154 11.6095 11.1015 11.895 10.7321C12.2618 10.2556 12.7209 9.86406 13.2423 9.58303C13.9933 9.29428 14.8332 9.40732 15.4883 9.88609C16.1433 10.3646 16.5297 11.1473 16.5214 11.9792C16.406 12.7447 16.116 13.4704 15.676 14.0961C15.2216 14.8633 14.8306 15.5238 15.0717 16.1803H15.0714C15.2136 16.4913 15.4136 16.7704 15.6603 17.0007C15.8121 17.1578 15.956 17.3238 16.0907 17.4972C16.3834 17.8879 16.5256 18.3778 16.4898 18.8715C16.4647 19.1943 16.3115 19.4913 16.067 19.6919C15.6691 19.9501 15.1879 20.0313 14.7319 19.9177C14.4792 19.8522 14.2132 19.8679 13.9693 19.9629C13.8117 20.1115 13.696 20.3012 13.6334 20.5127C13.5758 20.6646 13.5086 20.8126 13.432 20.9557C13.155 21.3438 12.7551 21.6179 12.3026 21.7298C11.8504 21.8417 11.3745 21.7844 10.9587 21.5678C10.5431 21.3512 10.2143 20.9892 10.0305 20.5453C9.96028 20.3318 9.90874 20.112 9.8765 19.8891C9.87264 19.6144 9.78418 19.3482 9.62353 19.1299C9.25619 18.7976 8.53725 19.3554 8.16575 19.7412L5.69295 22.3017Z" fill="#9B9997"/>
<path d="M28.9382 22.2773L29.4795 22.5274C29.5795 22.2787 29.6823 22.0174 29.7876 21.7439L29.2345 21.5347C29.1422 21.7836 29.0435 22.0312 28.9382 22.2773L28.9382 22.2773Z" fill="#9B9997"/>
<path d="M30.222 15.9999V16.5044H30.8145V15.9793C30.8145 15.5935 30.8145 15.2037 30.7751 14.8223L30.1826 14.8675C30.2102 15.2532 30.222 15.6264 30.222 15.9999V15.9999Z" fill="#9B9997"/>
<path d="M3.12097 6.34668C2.79497 6.79512 2.49156 7.26047 2.2124 7.7418L2.71808 8.06174C2.98759 7.599 3.28025 7.15111 3.59498 6.72018L3.12097 6.34668Z" fill="#9B9997"/>
<path d="M2.82886 25.2435C3.14246 25.7017 3.47866 26.1426 3.83633 26.5645L4.28276 26.1541V26.1544C3.93912 25.748 3.61588 25.3236 3.31493 24.8823L2.82886 25.2435Z" fill="#9B9997"/>
<path d="M4.96582 27.7667C5.36375 28.1473 5.78042 28.5059 6.21414 28.8416L6.56963 28.3494V28.3491C6.15766 28.026 5.76223 27.6809 5.38466 27.3154L4.96582 27.7667Z" fill="#9B9997"/>
<path d="M7.99222 1.97314C7.51795 2.24759 7.05776 2.5475 6.61353 2.87177L6.95331 3.3763C7.38595 3.06322 7.83429 2.77418 8.29644 2.51064L7.99222 1.97314Z" fill="#9B9997"/>
<path d="M5.72053 4.35667L5.32536 3.89307H5.32563C4.91117 4.25966 4.51548 4.64854 4.14038 5.05836L4.5711 5.46874L4.57083 5.46846C4.93514 5.07726 5.31876 4.7061 5.72053 4.35664L5.72053 4.35667Z" fill="#9B9997"/>
<path d="M0.868995 18.9791L0.288362 19.0981H0.288086C0.391705 19.6519 0.523698 20.1996 0.683261 20.739L1.24818 20.5584C1.09496 20.0393 0.968198 19.5122 0.868995 18.979V18.9791Z" fill="#9B9997"/>
<path d="M1.24438 22.3105C1.46208 22.8267 1.70625 23.3307 1.97546 23.82L2.49298 23.5204V23.5207C2.23808 23.0494 2.00742 22.5646 1.80157 22.0684L1.24438 22.3105Z" fill="#9B9997"/>
<path d="M0.592479 16.0004V15.7583H0V16.0127C0 16.4886 0.0198415 16.9686 0.0592481 17.4404L0.647875 17.3872C0.612326 16.9236 0.592485 16.46 0.592485 16.0004L0.592479 16.0004Z" fill="#9B9997"/>
<path d="M29.669 9.94061C29.4645 9.42091 29.2336 8.91297 28.9776 8.41846L28.4443 8.70979C28.6915 9.18542 28.9142 9.67449 29.112 10.1744L29.669 9.94061Z" fill="#9B9997"/>
<path d="M29.9929 13.2799L30.5776 13.1731H30.5774C30.4828 12.62 30.3602 12.0722 30.21 11.5322L29.6294 11.7005C29.7771 12.2199 29.8986 12.747 29.9929 13.2799V13.2799Z" fill="#9B9997"/>
<path d="M28.136 6.97433C27.8306 6.51101 27.5021 6.06457 27.1522 5.63672L26.7019 6.0471C27.0403 6.45633 27.3583 6.8836 27.654 7.3272L28.136 6.97433Z" fill="#9B9997"/>
<path d="M0.96771 12.546L0.394793 12.4106C0.274095 12.9524 0.180395 13.5001 0.114258 14.0516L0.702884 14.1254C0.764889 13.5945 0.853072 13.0674 0.96771 12.5459V12.546Z" fill="#9B9997"/>
<path d="M1.97518 9.48927L1.43781 9.22656C1.20853 9.73624 1.00544 10.2579 0.829346 10.7897L1.39041 10.9906V10.9909C1.55961 10.48 1.755 9.97867 1.97518 9.48929V9.48927Z" fill="#9B9997"/>
<path d="M7.56543 29.7772C8.03115 30.063 8.51118 30.3235 9.00338 30.5567L9.24837 29.9987C8.77521 29.774 8.31363 29.5233 7.8658 29.248L7.56543 29.7772Z" fill="#9B9997"/>
<path d="M22.7554 29.3624L23.0517 29.8958C23.5209 29.6171 23.976 29.3132 24.4146 28.9849L24.0668 28.4844H24.0671C23.6449 28.8006 23.2071 29.0936 22.7554 29.3623L22.7554 29.3624Z" fill="#9B9997"/>
<path d="M26.0388 4.41843C25.6477 4.03152 25.2377 3.66581 24.8103 3.32324L24.4468 3.81146C24.8593 4.14085 25.255 4.49285 25.632 4.86577L26.0388 4.41843Z" fill="#9B9997"/>
<path d="M10.9783 0.672852C10.4597 0.830818 9.94936 1.01712 9.44946 1.23061L9.67846 1.79667L9.67874 1.79696C10.1577 1.58862 10.6469 1.40633 11.1442 1.25122L10.9783 0.672852Z" fill="#9B9997"/>
<path d="M19.9075 30.6626L20.0891 31.2493C20.6047 31.079 21.1109 30.8804 21.6061 30.6543L21.3691 30.0923C20.8918 30.3092 20.404 30.4995 19.9075 30.6626H19.9075Z" fill="#9B9997"/>
<path d="M27.3733 25.0747L27.8511 25.4359C28.1711 24.9817 28.4679 24.5107 28.7402 24.0244L28.2265 23.7168C27.9653 24.1847 27.6803 24.638 27.3733 25.0747L27.3733 25.0747Z" fill="#9B9997"/>
<path d="M25.2837 27.4873L25.6789 27.9469V27.9466C26.0815 27.5726 26.4653 27.1768 26.8283 26.761L26.3899 26.3506V26.3509C26.0404 26.7492 25.6711 27.1284 25.2837 27.4873L25.2837 27.4873Z" fill="#9B9997"/>
<path d="M20.5432 0.910484C20.0328 0.723609 19.513 0.564778 18.9865 0.43457L18.8481 1.03354H18.8484C19.3549 1.15917 19.8546 1.31256 20.3456 1.49314L20.5432 0.910484Z" fill="#9B9997"/>
<path d="M23.4708 2.36294C23.0095 2.0636 22.5336 1.78972 22.0444 1.54248L21.7876 2.09623H21.7879C22.2588 2.32947 22.7177 2.58846 23.1627 2.87178L23.4708 2.36294Z" fill="#9B9997"/>
<path d="M10.5127 31.1799C11.0313 31.3596 11.5588 31.5102 12.0928 31.6312L12.2193 31.0323C11.712 30.9161 11.2107 30.7724 10.718 30.6016L10.5127 31.1799Z" fill="#9B9997"/>
<path d="M16.857 31.311L16.9124 31.9222C17.4508 31.8679 17.9863 31.7846 18.5162 31.6721L18.3977 31.0691V31.0688C17.8887 31.1776 17.3742 31.2583 16.8569 31.311H16.857Z" fill="#9B9997"/>
<path d="M14.1629 0.0532227C13.6236 0.0978667 13.0868 0.171701 12.5549 0.274722L12.6654 0.8777L12.6657 0.877986C13.1805 0.778394 13.7002 0.70714 14.2221 0.664495L14.1629 0.0532227Z" fill="#9B9997"/>
<path d="M17.3825 0.131072C16.8517 0.058955 16.3176 0.0151724 15.7825 0V0.615279C16.303 0.628157 16.8225 0.669366 17.3389 0.738336L17.3825 0.131072Z" fill="#9B9997"/>
<path d="M13.6768 31.9013C14.2147 31.9631 14.7553 31.996 15.2966 31.9998V31.3845C14.7763 31.381 14.2569 31.3496 13.7399 31.29L13.6768 31.9013Z" fill="#9B9997"/>
<path d="M15.3403 28.7183L15.2573 28.1233V28.0824C15.2615 26.97 15.4213 25.8645 15.7316 24.8002C16.0739 23.646 16.8829 22.7043 17.9477 22.2194C18.2219 22.1173 18.5016 22.0308 18.7852 21.961C19.5752 21.7435 20.0928 21.5795 20.2154 21.1116V21.1119C20.2534 20.8363 20.2289 20.5553 20.1443 20.2912C20.1206 20.1804 20.093 20.0697 20.0732 19.9589C19.9117 18.9484 20.1495 17.913 20.7329 17.0871C21.3226 16.1968 22.2323 15.5907 23.2574 15.405C23.8157 15.273 24.4019 15.4053 24.8574 15.7661C25.3948 16.246 25.4579 17.0296 25.4579 17.5796V17.715V17.7147C25.4119 18.1357 25.4788 18.5618 25.6514 18.9456C25.7916 19.101 25.9842 19.1934 26.1887 19.204C26.2965 19.2252 26.4081 19.2031 26.5007 19.1425L27.6267 17.887L27.1684 19.5279V19.5282C26.4544 22.1344 24.9534 24.4338 22.8868 26.0882C20.8203 27.7426 18.2969 28.6644 15.6883 28.7182L15.3403 28.7183ZM23.7036 16.1884C23.5964 16.1884 23.4895 16.1967 23.3834 16.213C22.5688 16.3638 21.8468 16.8489 21.3805 17.5589C20.9233 18.2022 20.734 19.0092 20.855 19.7988C20.855 19.8972 20.8944 19.9957 20.9181 20.0984H20.9183C21.0396 20.4965 21.0614 20.92 20.9814 21.329C20.7285 22.2891 19.7962 22.5392 18.9863 22.7567C18.7311 22.8188 18.4793 22.8955 18.2318 22.9865C17.3836 23.386 16.7437 24.1478 16.4778 25.0747C16.2113 25.9822 16.0702 26.9243 16.0589 27.8727C18.306 27.7493 20.4675 26.9377 22.2709 25.5403C24.0742 24.1426 25.4386 22.2221 26.1923 20.0202H26.1212C25.6734 19.9924 25.2604 19.7615 24.9914 19.3886C24.7296 18.8763 24.6185 18.2957 24.6714 17.7188V17.5834C24.6714 16.9598 24.5686 16.5947 24.3435 16.3938V16.3935C24.1597 16.2498 23.9334 16.1774 23.7036 16.1883L23.7036 16.1884Z" fill="#9B9997"/>
<path d="M5.0567 22.806L4.84341 22.4325V22.4328C3.93569 20.8262 3.37872 19.0324 3.2123 17.1777C3.04585 15.3234 3.27348 13.4534 3.87946 11.7003L3.91887 11.5855L4.13602 11.4132L4.20325 11.3926C5.90632 10.8343 7.74103 10.8893 9.41023 11.5483L9.54857 11.6015V11.6018C9.79879 11.7154 10.0661 11.7836 10.3386 11.8027C10.5166 11.7953 10.6908 11.7464 10.8482 11.6594C11.2395 11.4155 11.5859 11.1016 11.8714 10.7322C12.2382 10.2557 12.6973 9.86416 13.2187 9.58313C13.9696 9.29438 14.8096 9.40742 15.4646 9.88619C16.1196 10.3647 16.506 11.1474 16.4977 11.9793C16.3823 12.7448 16.0924 13.4705 15.6523 14.0962C15.1979 14.8634 14.8069 15.5239 15.048 16.1804H15.0477C15.1899 16.4914 15.39 16.7705 15.6363 17.0008C15.7884 17.1579 15.9323 17.3239 16.0671 17.4973C16.3683 17.8845 16.519 18.3748 16.4898 18.8716C16.4647 19.1944 16.3115 19.4914 16.0671 19.692C15.6691 19.9507 15.188 20.032 14.7319 19.9178C14.4792 19.8523 14.2133 19.868 13.9693 19.963C13.8117 20.1116 13.696 20.3013 13.6334 20.5128C13.5758 20.6648 13.5086 20.8127 13.432 20.9558C13.155 21.3439 12.7552 21.618 12.3027 21.7299C11.8505 21.8418 11.3746 21.7845 10.9587 21.5679C10.5431 21.3513 10.2143 20.9893 10.0306 20.5454C9.9603 20.3319 9.90877 20.1121 9.87653 19.8892C9.87267 19.6145 9.78421 19.3483 9.62356 19.13C9.25622 18.7977 8.53728 19.3555 8.16578 19.7413L5.40042 22.5681L5.0567 22.806ZM4.57087 12.1391L4.57059 12.1394C3.54103 15.2515 3.79846 18.6676 5.28184 21.5755L7.60078 19.1713C8.53715 18.1989 9.50885 17.9405 10.1371 18.5231C10.4535 18.8565 10.642 19.2987 10.6665 19.766C10.6869 19.9397 10.7214 20.1114 10.7693 20.2788C10.9468 20.6532 11.2945 20.9084 11.6936 20.9574C12.0924 21.0063 12.4881 20.842 12.7446 20.5209C12.8099 20.4062 12.8681 20.2868 12.9182 20.1641C13.0384 19.8115 13.2572 19.5044 13.5465 19.2821C13.9381 19.0717 14.3887 19.0122 14.8185 19.1138C15.0718 19.1856 15.3413 19.1639 15.5811 19.0523C15.6536 18.9902 15.6976 18.8995 15.7034 18.8019C15.7202 18.5048 15.6285 18.2118 15.4466 17.9814C15.3218 17.8378 15.1901 17.701 15.0517 17.5713C14.7268 17.2668 14.4669 16.8951 14.2892 16.4799C13.894 15.4502 14.4432 14.5476 14.9569 13.6779C15.338 13.1528 15.5973 12.5435 15.7153 11.8973C15.7018 11.355 15.4416 10.8513 15.0142 10.5391C14.5868 10.2272 14.0426 10.1433 13.5465 10.3136C13.126 10.5531 12.7564 10.8782 12.4599 11.2697C12.1127 11.7139 11.6894 12.0879 11.2116 12.3732C10.9501 12.5157 10.6613 12.5956 10.3662 12.607C9.99111 12.5973 9.62105 12.5137 9.27601 12.3609L9.14538 12.3077C7.68098 11.7256 6.07195 11.6649 4.57058 12.1351L4.57087 12.1391Z" fill="#9B9997"/>
<path d="M23.8968 12.9689C23.7315 12.97 23.5683 12.9276 23.4228 12.8458C23.2035 12.6961 23.0274 12.4878 22.913 12.2425L22.8736 12.1727V12.173C22.2993 11.2377 21.3064 10.6705 20.2386 10.6671H19.804C19.1443 10.704 18.3225 10.7492 17.805 10.1214V10.1217C17.52 9.70669 17.3718 9.20735 17.3822 8.69789V8.59544C17.2913 7.4015 16.1416 5.57172 15.3794 4.35741L14.6841 3.28223H15.4069C17.8088 3.28165 20.1581 4.01427 22.162 5.38937C24.1663 6.76449 25.7365 8.72108 26.6781 11.0159L26.8165 11.3525L26.3819 11.6069L24.8883 12.5871C24.5973 12.8057 24.2545 12.9376 23.8967 12.9688L23.8968 12.9689ZM20.2386 9.84667C21.573 9.8627 22.8092 10.5773 23.5254 11.7463L23.5689 11.8242C23.6238 11.9412 23.7018 12.0445 23.7982 12.1278C23.9721 12.2263 24.3474 11.9801 24.4698 11.898L25.809 11.016C24.9451 9.07115 23.5915 7.40474 21.8915 6.19249C20.1915 4.97994 18.2076 4.26652 16.1497 4.12769C16.9871 5.46097 18.0382 7.20467 18.125 8.52997V8.63671V8.63642C18.1112 8.97497 18.1936 9.31037 18.362 9.60054C18.6268 9.92049 19.152 9.89187 19.7211 9.85896H20.1951L20.2386 9.84667Z" fill="#9B9997"/>
</svg>
