<svg width="29" height="30" viewBox="0 0 29 30" fill="none" xmlns="http://www.w3.org/2000/svg">
<path d="M7.24995 28.2913C7.24995 28.9558 6.7058 29.4999 6.04179 29.4999H1.20867C0.544134 29.4999 0 28.9558 0 28.2913V23.4581C0 22.7936 0.544147 22.25 1.20867 22.25H6.04179C6.70581 22.25 7.24995 22.7936 7.24995 23.4581V28.2913Z" fill="#AFB6C4"/>
<path d="M16.9162 28.2913C16.9162 28.9558 16.3721 29.4999 15.7081 29.4999H10.8749C10.2104 29.4999 9.66626 28.9558 9.66626 28.2913V23.4581C9.66626 22.7936 10.2104 22.25 10.8749 22.25H15.7081C16.3721 22.25 16.9162 22.7936 16.9162 23.4581V28.2913Z" fill="#AFB6C4"/>
<path d="M26.583 28.2913C26.583 28.9558 26.0388 29.4999 25.3748 29.4999H20.5414C19.8769 29.4999 19.3328 28.9558 19.3328 28.2913L19.333 23.4581C19.333 22.7936 19.8772 22.25 20.5417 22.25H25.3748C26.0388 22.25 26.583 22.7936 26.583 23.4581L26.583 28.2913Z" fill="#AFB6C4"/>
<path d="M7.24995 18.6248C7.24995 19.2893 6.7058 19.8329 6.04179 19.8329H1.20867C0.544134 19.8329 0 19.2893 0 18.6248V13.7916C0 13.1271 0.544147 12.5835 1.20867 12.5835H6.04179C6.70581 12.5835 7.24995 13.1271 7.24995 13.7916V18.6248Z" fill="#AFB6C4"/>
<path d="M16.9162 18.6248C16.9162 19.2893 16.3721 19.8329 15.7081 19.8329H10.8749C10.2104 19.8329 9.66626 19.2893 9.66626 18.6248V13.7916C9.66626 13.1271 10.2104 12.5835 10.8749 12.5835H15.7081C16.3721 12.5835 16.9162 13.1271 16.9162 13.7916V18.6248Z" fill="#AFB6C4"/>
<path fill-rule="evenodd" clip-rule="evenodd" d="M21.743 19.8288C21.9966 20.4425 22.7069 20.736 23.3216 20.4827L27.7863 18.6322C28.4 18.3781 28.6936 17.6681 28.4402 17.0546L26.59 12.5884C26.3359 11.9747 25.6259 11.6796 25.0125 11.9345L20.5467 13.7852C19.933 14.0398 19.6395 14.7503 19.8928 15.3638L21.743 19.8288ZM20.8171 14.982C20.8171 14.9821 20.8171 14.9819 20.8171 14.982L22.6668 19.446C22.7085 19.5468 22.8331 19.6021 22.94 19.5584C22.9402 19.5583 22.9398 19.5584 22.94 19.5584L27.4034 17.7084C27.5061 17.6659 27.5589 17.5409 27.516 17.4366C27.516 17.4366 27.5161 17.4367 27.516 17.4366L25.6662 12.9711C25.6228 12.8663 25.4973 12.8159 25.3962 12.8579L20.93 14.7088C20.9299 14.7088 20.9301 14.7088 20.93 14.7088C20.8269 14.7517 20.7743 14.8778 20.8171 14.982Z" fill="#AFB6C4"/>
<path d="M7.24995 8.95853C7.24995 9.62306 6.7058 10.1667 6.04179 10.1667H1.20867C0.544134 10.1667 0 9.62304 0 8.95853V4.12514C0 3.46061 0.544147 2.91699 1.20867 2.91699H6.04179C6.70581 2.91699 7.24995 3.46063 7.24995 4.12514V8.95853Z" fill="#AFB6C4"/>
<path d="M15.7157 10.1617C15.4618 10.7751 14.7503 11.0702 14.1371 10.8156L9.67163 8.96545C9.05794 8.71158 8.76286 8.00004 9.01771 7.38684L10.8668 2.92184C11.1217 2.30841 11.8322 2.01307 12.4454 2.26792L16.9117 4.11808C17.5251 4.37195 17.819 5.08349 17.5653 5.6967L15.7157 10.1617Z" fill="#AFB6C4"/>
<path fill-rule="evenodd" clip-rule="evenodd" d="M27.9405 4.97776L24.5232 1.55928C24.4442 1.48027 24.308 1.48024 24.229 1.55917L20.8114 4.97773C20.8114 4.97775 20.8114 4.97771 20.8114 4.97773C20.7323 5.05695 20.7321 5.19319 20.8113 5.27254C20.8113 5.27257 20.8113 5.2725 20.8113 5.27254L24.2289 8.69095C24.3079 8.76999 24.4441 8.77009 24.5231 8.69106L27.9405 5.27256C28.0197 5.19336 28.0198 5.05706 27.9405 4.97776ZM20.1041 5.97956C19.6346 5.50975 19.6346 4.74053 20.1041 4.27078L23.5218 0.852168C23.9913 0.382611 24.7608 0.382611 25.2304 0.852168L28.6477 4.27078C29.1175 4.74059 29.1175 5.5098 28.6477 5.97956L25.2304 9.39798C24.7608 9.86779 23.9913 9.86779 23.5218 9.39798L20.1041 5.97956Z" fill="#AFB6C4"/>
</svg>
