<svg width="32" height="33" viewBox="0 0 32 33" fill="none" xmlns="http://www.w3.org/2000/svg">
<path d="M27.341 10.3251C26.2723 9.47402 24.8709 9.11558 23.6292 9.31403C22.8995 9.4292 22.2147 9.69794 21.6132 10.0883C21.5748 10.0756 21.5364 10.0691 21.498 10.0627C22.2085 9.52519 22.8995 9.07723 23.5908 8.76365C24.4802 8.3476 25.3507 8.19403 26.2339 8.26457C27.1171 8.34135 28.0388 8.64222 28.9858 9.07098C29.9393 9.49327 30.8928 10.0564 31.9807 10.5684C31.5008 9.38456 30.7584 8.36702 29.8241 7.54135C28.8898 6.72865 27.706 6.10772 26.3875 6.00549C25.0627 5.89032 23.7059 6.37668 22.7332 7.24697C22.4196 7.52217 22.1444 7.83579 21.9013 8.16211C21.9524 7.95097 22.0038 7.73982 22.0292 7.52221C22.202 6.15914 21.8821 4.62329 21.1076 3.44564C20.3396 2.26176 19.2452 1.46809 18.1319 1.02012C17.0056 0.565683 15.828 0.399413 14.6569 0.559432C15.6169 1.31453 16.5447 1.9225 17.3703 2.60086C18.196 3.25996 18.9062 3.97044 19.4247 4.76388C19.9494 5.55738 20.2758 6.45327 20.4166 7.50927C20.5061 8.13649 20.5253 8.80828 20.5126 9.51229C20.4742 9.48038 20.4358 9.44824 20.3909 9.42904C20.3844 9.42904 20.3844 9.42904 20.3782 9.42257C20.2373 8.68667 19.9621 7.96351 19.5655 7.31063C18.8807 6.1587 17.7031 5.25006 16.4168 4.93643C15.1305 4.60363 13.8315 4.81478 12.7242 5.28842C11.6106 5.7683 10.6314 6.49795 9.85067 7.47715C11.0218 7.34278 12.0905 7.11869 13.1145 7.01646C14.1321 6.92048 15.0921 6.92696 15.9559 7.14436C16.8199 7.36198 17.607 7.79072 18.3493 8.47554C18.7078 8.80833 19.0533 9.18601 19.3861 9.59559C19.3669 9.61478 19.3477 9.64045 19.3221 9.6659C18.9317 9.58265 18.5094 9.60184 18.1317 9.74915C17.5621 9.9603 17.1077 10.3764 16.7751 10.85C16.4488 11.3236 16.2312 11.8611 16.1414 12.4435C16.5637 12.085 16.9287 11.7268 17.3061 11.4194C17.6773 11.1123 18.0677 10.9074 18.4324 10.7219C18.8612 10.5043 20.1924 10.4532 20.397 10.5875C20.3906 10.6132 19.1042 12.0788 18.9058 12.3602C17.978 13.6849 17.1842 15.1312 16.4867 16.6159C15.7955 18.1134 15.1748 19.6495 14.6435 21.2237C14.4835 21.6974 14.3364 22.3054 14.1891 22.9645C14.0612 22.5998 13.9204 22.2221 13.7731 21.8444L13.7795 21.838C13.7795 21.838 13.7731 21.838 13.7731 21.8315C13.1523 20.27 12.3332 18.5997 11.2899 17.211H11.2835C10.586 16.2832 9.78601 15.4832 8.8836 14.9328H8.89632C10.5857 14.1328 15.5777 15.3488 15.6862 15.3551C15.7438 15.3616 15.7887 15.3232 15.8079 15.2718C15.8271 15.2142 15.8206 15.1567 15.7822 15.1118C15.6797 15.0031 13.3121 12.3856 10.7905 12.3856H10.7265C10.5153 12.3921 10.3042 12.4048 10.0993 12.424C10.0993 12.424 11.0463 11.3553 14.1247 10.7538C14.1758 10.7411 14.2015 10.677 14.2015 10.6194C14.2015 10.5619 14.1631 10.5107 14.112 10.4915C14.0609 10.4723 12.7808 9.97952 11.3217 9.97952C10.4769 9.97952 9.74102 10.1458 9.14596 10.4786C7.48846 11.4064 6.97643 12.4881 6.84855 12.8593C6.3622 12.6097 5.56222 12.3472 4.37189 12.3921C2.12562 12.4754 0.116134 14.9328 0.0328243 15.0353C0.000906705 15.0801 -0.0120393 15.144 0.013629 15.1953C0.0392972 15.2464 0.0839391 15.2786 0.141524 15.2786C0.237502 15.2721 4.14775 14.0626 5.63875 14.5811C5.63875 14.5811 4.74281 15.3362 4.30134 15.9698C2.74629 18.1842 3.03422 21.8381 3.05342 21.9981C3.05989 22.0556 3.09828 22.1068 3.14939 22.1197C3.20051 22.1389 3.25809 22.1197 3.29023 22.0686C3.36054 21.9726 5.76689 17.0769 8.18595 15.2787C8.18595 15.2787 12.9729 17.9921 13.1584 32.5H15.7632C15.2641 20.5133 19.0014 14.3125 19.6478 12.8851C19.7437 12.674 20.3645 11.5093 20.8892 10.7412C20.8892 10.7412 21.4459 11.0164 21.9387 11.8613C21.9387 11.8613 22.3164 12.6036 22.374 13.0132C22.4443 13.4485 22.4188 13.9219 22.3483 14.4339C22.2842 14.933 22.1628 15.4579 22.0731 16.0402C22.4954 15.6755 22.8219 15.2146 23.0523 14.6707C23.2764 14.1267 23.3978 13.4868 23.2956 12.8404C23.2061 12.1876 22.8541 11.5798 22.3996 11.2086C22.3677 11.1829 22.3356 11.1637 22.3036 11.1383C22.3101 11.0934 22.3036 11.0423 22.3036 10.9974C22.7773 10.9974 23.2315 11.0294 23.6603 11.1061C24.6203 11.2597 25.4329 11.6182 26.1626 12.1878C26.8857 12.7509 27.5256 13.5317 28.1337 14.4406C28.7481 15.343 29.3048 16.3606 29.9961 17.4163C30.1432 16.1235 29.9833 14.8437 29.58 13.6084C29.1392 12.3666 28.4225 11.157 27.3408 10.3251L27.341 10.3251Z" fill="#AFB6C4"/>
</svg>
