<svg width="32" height="32" viewBox="0 0 32 32" fill="none" xmlns="http://www.w3.org/2000/svg">
<path d="M31.3853 31.9996H32L22.2785 4.53071L20.3151 12.0423L15.9636 0L10.4335 15.1433L9.4361 10.5357L9.1236 11.2401C9.04865 11.4084 2.21474 26.8054 0 31.9993H8.87218L10.6555 27.1562L7.67831 27.7259L9.43891 21.1705L7.19807 23.1679L9.31085 19.037L9.34422 12.7506L10.109 16.2839L13.2731 31.9994H19.572L18.2583 30.1478L20.5152 23.5952L17.5861 23.4527L19.8389 19.5354L16.2896 19.7491L17.5701 12.4367L16.2257 12.769L16.5161 6.79414L15.6815 7.21378L15.92 1.81517L15.9613 1.70199L20.1154 13.1979L20.1248 13.2237L20.3948 13.9712L20.3953 13.9697L26.9348 32H28.396L28.7823 28.4389L27.7898 29.5783L28.2776 26.6497L25.8451 25.5187L25.5147 20.2245L24.3622 22.9785L24.2123 16.4735L22.1957 14.515L23.252 11.2385L22.1957 10.5619L22.3531 6.47901L31.3853 31.9996Z" fill="#AFB6C4"/>
</svg>
