<svg width="32" height="32" viewBox="0 0 32 32" fill="none" xmlns="http://www.w3.org/2000/svg">
<path d="M28 3.92004V30.36C28 30.6398 27.7726 30.86 27.4946 30.86H26.6556C26.6909 30.7 26.7062 30.5301 26.7062 30.36V3.92004C26.7062 2.46507 25.5136 1.28005 24.043 1.28005H5.65268C5.48071 1.28005 5.30899 1.29497 5.14724 1.33011V0.500077C5.14724 0.225014 5.37466 0 5.65268 0H24.043C26.2211 0 28 1.76016 28 3.92004Z" fill="#AFB6C4"/>
<path d="M17.7413 12.9758H15.3552V14.8139C16.0927 14.8599 16.8078 15.0052 17.4884 15.2447C17.6302 14.5314 17.7158 13.7671 17.7413 12.9758Z" fill="#AFB6C4"/>
<path d="M17.2525 16.2176C16.649 15.9945 16.012 15.8585 15.3557 15.8118V19.1617C16.3277 18.7141 16.9519 17.2413 17.2525 16.2176Z" fill="#AFB6C4"/>
<path d="M14.3446 19.1642V15.8117C13.6854 15.8584 13.0466 15.9943 12.4422 16.2172C12.745 17.2428 13.368 18.7216 14.3446 19.1642Z" fill="#AFB6C4"/>
<path d="M17.4872 9.70753C16.8067 9.94626 16.0921 10.0911 15.3556 10.1369V11.9752H17.7414C17.7154 11.1842 17.6293 10.4204 17.4872 9.70753Z" fill="#AFB6C4"/>
<path d="M10.2573 17.5335C10.9658 18.1679 11.7398 18.6095 12.5858 18.9002C12.1003 18.2254 11.7656 17.4459 11.5175 16.6448C11.0695 16.8922 10.6447 17.1855 10.2573 17.5335Z" fill="#AFB6C4"/>
<path d="M18.4343 15.6477C19.0456 15.9586 19.6167 16.3509 20.137 16.8199C21.055 15.7293 21.5984 14.3941 21.7015 12.9752H18.7523C18.7236 13.9087 18.6153 14.8107 18.4343 15.6477Z" fill="#AFB6C4"/>
<path d="M15.3552 5.78994V9.13933C16.0104 9.09265 16.6467 8.95716 17.25 8.73504C16.9496 7.71513 16.325 6.23733 15.3552 5.78994Z" fill="#AFB6C4"/>
<path d="M17.1074 18.9005C17.9886 18.5978 18.7541 18.1449 19.4405 17.5336C19.0514 17.1859 18.6259 16.8928 18.1777 16.6454C17.9286 17.4518 17.5968 18.2222 17.1074 18.9005Z" fill="#AFB6C4"/>
<path d="M18.7519 11.9753H21.7011C21.5963 10.5591 21.0529 9.22681 20.1361 8.1376C19.6154 8.60471 19.0445 8.99554 18.4332 9.30524C18.6144 10.1415 18.7232 11.0427 18.7519 11.9753Z" fill="#AFB6C4"/>
<path d="M19.4406 7.42314C18.7364 6.79333 17.9612 6.34428 17.1045 6.04974C17.5961 6.73247 17.9299 7.51315 18.1757 8.3085C18.6245 8.06183 19.0505 7.76992 19.4406 7.42314Z" fill="#AFB6C4"/>
<path d="M11.9497 11.9753H14.3444V10.1362C13.6113 10.089 12.8935 9.94054 12.208 9.69893C12.0635 10.4154 11.976 11.1823 11.9497 11.9753Z" fill="#AFB6C4"/>
<path d="M11.261 15.6563C11.0776 14.8157 10.9679 13.9104 10.939 12.9752H7.99028C8.09439 14.39 8.64024 15.7249 9.56231 16.8193C10.076 16.3573 10.6471 15.9675 11.261 15.6563Z" fill="#AFB6C4"/>
<path d="M24.0429 2.28H5.65254C4.74286 2.28 4 3.01497 4 3.92004V30.36C4 31.265 4.74286 32 5.65254 32H24.0429C24.9525 32 25.6954 31.265 25.6954 30.36V3.92004C25.6954 3.01516 24.9525 2.28 24.0429 2.28ZM14.8446 4.66918L14.8473 4.66894H14.8499C19.225 4.66894 22.7356 8.18991 22.7356 12.4795C22.7356 16.7569 19.2413 20.2814 14.8499 20.2814H14.8482L14.8446 20.2812C10.5364 20.2783 6.95519 16.8179 6.95519 12.4792C6.95543 8.13213 10.5461 4.67226 14.8446 4.66918ZM21.2134 26.0148V27.0147H8.48201V26.0148H21.2134ZM10.8582 24.4181V23.4182H18.8372V24.4181H10.8582ZM22.8884 29.6114H6.80699V28.6115H22.8884V29.6114Z" fill="#AFB6C4"/>
<path d="M11.2623 9.29661C10.6486 8.98666 10.0775 8.59848 9.56305 8.13809C8.64191 9.23187 8.09607 10.5636 7.99052 11.9755H10.9391C10.9685 11.0408 11.0786 10.1367 11.2623 9.29661Z" fill="#AFB6C4"/>
<path d="M12.588 6.05054C11.6936 6.35785 10.9272 6.82013 10.2573 7.42321C10.6457 7.76999 11.0709 8.06213 11.5192 8.30881C11.7649 7.51703 12.101 6.72846 12.588 6.05054Z" fill="#AFB6C4"/>
<path d="M14.3446 9.13952V5.78748C13.3677 6.231 12.745 7.718 12.4441 8.7355C13.0481 8.95762 13.6861 9.09307 14.3446 9.13952Z" fill="#AFB6C4"/>
<path d="M12.2069 15.2534C12.8926 15.0111 13.6111 14.8621 14.3449 14.8149V12.9758H11.95C11.9756 13.769 12.0627 14.5365 12.2069 15.2534Z" fill="#AFB6C4"/>
</svg>
