<svg width="32" height="32" viewBox="0 0 32 32" fill="none" xmlns="http://www.w3.org/2000/svg">
<path d="M9.93578 2.86494H7.37284C7.19724 2.04737 6.53014 1.4156 5.72268 1.4156H1.6852C0.737178 1.4156 0 2.23318 0 3.23663C0 4.24009 0.772413 5.05766 1.6852 5.05766H3.9672C4.1428 5.87524 4.8099 6.507 5.61736 6.507H9.93578C10.8838 6.507 11.621 5.68943 11.621 4.68597C11.6562 3.71961 10.8838 2.86494 9.93578 2.86494ZM10.6029 4.72307C10.6029 5.13187 10.322 5.42922 9.93578 5.42922H5.61736C5.26616 5.42922 4.95021 5.09482 4.95021 4.72307C4.95021 4.31427 4.6693 4.01691 4.28306 4.01691H1.64984C1.29864 4.01691 0.982694 3.68251 0.982694 3.31076C0.982694 3.12489 1.05298 2.93903 1.15829 2.7905C1.2636 2.64197 1.4392 2.56756 1.61479 2.56756H5.61729C5.96849 2.56756 6.28444 2.90197 6.28444 3.27372C6.28444 3.45958 6.35473 3.64545 6.46004 3.79398C6.56535 3.94252 6.74095 4.01691 6.91654 4.01691H9.83064C10.2869 3.97985 10.6029 4.31425 10.6029 4.72307Z" fill="#AFB6C4"/>
<path d="M25.5047 15.9461C26.3473 15.9461 27.0845 15.3144 27.2251 14.4224H30.2445C31.2276 14.4224 32 13.6048 32 12.5643V12.5272C32 11.4867 31.2276 10.6691 30.2445 10.6691H24.4513C23.6086 10.6691 22.8714 11.3008 22.7309 12.1928H21.9234V9.03387C21.9234 8.73654 21.6775 8.47654 21.3969 8.47654H19.7817C19.5008 8.47654 19.2902 8.25361 19.2902 7.95628V4.8347C19.2902 4.53736 19.0443 4.27737 18.7636 4.27737H17.4294C17.1135 4.27737 16.8676 4.0171 16.8676 3.68271V0.560857C16.8676 0.263523 16.657 0.00352518 16.4111 0.00352518C16.0952 -0.0335438 15.8493 0.22646 15.8493 0.560857V3.68244C15.8493 4.01684 15.6034 4.2771 15.2875 4.2771H13.9532C13.6723 4.2771 13.4267 4.53736 13.4267 4.83443V7.95602C13.4267 8.25335 13.2161 8.47628 12.9352 8.47628H11.32C11.0391 8.47628 10.7935 8.73654 10.7935 9.03361V21.2972C9.95076 20.1079 8.72205 19.2532 7.28249 18.9932C7.07187 18.9562 6.93129 18.7703 6.93129 18.5474V15.4999C6.93129 15.2026 6.72067 14.9426 6.47479 14.9426C6.15886 14.9055 5.91298 15.1655 5.91298 15.4999V18.5474C5.91298 18.7703 5.77265 18.9562 5.56178 18.9932C2.96361 19.4391 0.997465 21.8175 0.997465 24.6791V31.4427C0.997465 31.74 1.24335 32 1.52401 32C1.80492 32 2.05055 31.7397 2.05055 31.4427L2.05129 25.6454C2.05129 25.3851 2.22689 25.1995 2.47253 25.1995H3.84181C4.08769 25.1995 4.26305 25.3854 4.26305 25.6454V31.4056C4.26305 31.703 4.50893 31.963 4.78959 31.963C5.0705 31.963 5.31613 31.7027 5.31613 31.4056L5.31662 25.6454C5.31662 25.3851 5.49222 25.1995 5.73787 25.1995H7.10714C7.35303 25.1995 7.52838 25.3854 7.52838 25.6454V31.4056C7.52838 31.703 7.77427 31.963 8.05493 31.963C8.33583 31.963 8.58147 31.7027 8.58147 31.4056L8.58172 25.6454C8.58172 25.3851 8.75731 25.1995 9.00296 25.1995H10.3722C10.6181 25.1995 10.7935 25.3854 10.7935 25.6454V31.4056C10.7935 31.703 11.0394 31.963 11.32 31.963H21.3965C21.6774 31.963 21.923 31.7027 21.923 31.4056L21.9233 21.2974C21.9233 21.186 21.9583 21.1116 22.0636 21.0745L29.7175 16.9865C29.8578 16.9121 30.0687 17.0236 30.0687 17.2094V31.4427C30.0687 31.74 30.3146 32 30.5953 32C30.8762 32 31.1218 31.7397 31.1218 31.4427L31.122 15.7601C31.122 15.5742 31.0167 15.3884 30.8762 15.3142C30.7358 15.2028 30.525 15.3886 30.3846 15.4628L22.3094 19.7737C22.1338 19.8481 21.9582 19.7366 21.9582 19.5507V15.983H25.5047L25.5047 15.9461ZM2.33228 24.0847C2.15669 24.0847 2.01635 23.8989 2.05138 23.713C2.40257 21.7434 3.94717 20.257 5.84322 19.9967C5.94853 19.9967 6.0891 19.9597 6.19441 19.9597C6.22944 19.9597 6.29972 19.9967 6.37001 19.9967C6.4403 19.9967 6.47532 19.9967 6.54561 19.9597C6.65092 19.9597 6.7915 19.9597 6.89681 19.9967C8.7926 20.2197 10.3375 21.7434 10.6887 23.713C10.7237 23.8989 10.5833 24.0474 10.4077 24.0474L2.33252 24.0477L2.33228 24.0847ZM14.3047 29.622C14.3047 29.9193 14.0588 30.1423 13.7781 30.1423C13.4972 30.1423 13.2516 29.9193 13.2516 29.622L13.2513 27.5039C13.2513 27.2065 13.4972 26.9836 13.7779 26.9836C14.0588 26.9836 14.3044 27.2066 14.3044 27.5039L14.3047 29.622ZM14.3047 24.3079C14.3047 24.6052 14.0588 24.8282 13.7781 24.8282C13.4972 24.8282 13.2516 24.6052 13.2516 24.3079V22.1895C13.2516 21.8922 13.4975 21.6692 13.7781 21.6692C14.059 21.6692 14.3047 21.8922 14.3047 22.1895V24.3079ZM14.3047 19.0308C14.3047 19.3282 14.0588 19.5511 13.7781 19.5511C13.4972 19.5511 13.2516 19.3282 13.2516 19.0308V16.9124C13.2516 16.6151 13.4975 16.3922 13.7781 16.3922C14.059 16.3922 14.3047 16.6151 14.3047 16.9124V19.0308ZM14.3047 13.7536C14.3047 14.0509 14.0588 14.2738 13.7781 14.2738C13.4972 14.2738 13.2516 14.0509 13.2516 13.7536V11.6352C13.2516 11.3378 13.4975 11.1149 13.7781 11.1149C14.059 11.1149 14.3047 11.3378 14.3047 11.6352V13.7536ZM16.7973 29.6219C16.7973 29.9193 16.5514 30.1422 16.2708 30.1422C15.9899 30.1422 15.7442 29.9193 15.7442 29.6219L15.744 27.5038C15.744 27.2065 15.9899 26.9836 16.2705 26.9836C16.5515 26.9836 16.7971 27.2065 16.7971 27.5038L16.7973 29.6219ZM16.7973 24.3078C16.7973 24.6052 16.5514 24.8281 16.2708 24.8281C15.9899 24.8281 15.7442 24.6052 15.7442 24.3078V22.1894C15.7442 21.8921 15.9901 21.6692 16.2708 21.6692C16.5517 21.6692 16.7973 21.8921 16.7973 22.1894V24.3078ZM16.7973 19.0308C16.7973 19.3281 16.5514 19.551 16.2708 19.551C15.9899 19.551 15.7442 19.3281 15.7442 19.0308V16.9124C15.7442 16.615 15.9901 16.3921 16.2708 16.3921C16.5517 16.3921 16.7973 16.615 16.7973 16.9124V19.0308ZM16.7973 13.7535C16.7973 14.0508 16.5514 14.2737 16.2708 14.2737C15.9899 14.2737 15.7442 14.0508 15.7442 13.7535V11.6351C15.7442 11.3378 15.9901 11.1148 16.2708 11.1148C16.5517 11.1148 16.7973 11.3378 16.7973 11.6351V13.7535ZM18.3072 11.6354C18.3072 11.338 18.5531 11.1151 18.8337 11.1151C19.1146 11.1151 19.3603 11.338 19.3603 11.6354V12.1927C18.8687 12.1927 18.6228 12.2671 18.3069 12.453L18.3072 11.6354ZM19.2902 29.622C19.2902 29.9193 19.0444 30.1423 18.7637 30.1423C18.4828 30.1423 18.2372 29.9193 18.2372 29.622L18.2369 27.5039C18.2369 27.2065 18.4828 26.9836 18.7635 26.9836C19.0444 26.9836 19.29 27.2066 19.29 27.5039L19.2902 29.622ZM19.2902 24.3079C19.2902 24.6052 19.0444 24.8282 18.7637 24.8282C18.4828 24.8282 18.2372 24.6052 18.2372 24.3079V22.1895C18.2372 21.8922 18.483 21.6692 18.7637 21.6692C19.0446 21.6692 19.2902 21.8922 19.2902 22.1895V24.3079ZM19.2902 19.0308C19.2902 19.3282 19.0444 19.5511 18.7637 19.5511C18.4828 19.5511 18.2372 19.3282 18.2372 19.0308V16.9124C18.2372 16.6151 18.483 16.3922 18.7637 16.3922C19.0446 16.3922 19.2902 16.6151 19.2902 16.9124V19.0308ZM19.1146 14.8314C18.7284 14.8314 18.4125 14.4597 18.4125 14.0138C18.4125 13.605 18.7284 13.2706 19.1146 13.2706H23.0118C23.398 13.2706 23.7139 12.9362 23.7139 12.5275C23.7139 12.1187 24.0299 11.7843 24.4161 11.7843H30.209C30.5953 11.7843 30.9112 12.1187 30.9112 12.5275V12.5645C30.9112 12.9733 30.5952 13.3077 30.209 13.3077H26.8737C26.4875 13.3077 26.1716 13.6421 26.1716 14.0509C26.1716 14.4597 25.8556 14.7941 25.4694 14.7941H19.1146L19.1146 14.8314Z" fill="#AFB6C4"/>
</svg>
